G04 #@! TF.FileFunction,Legend,Bot*
%FSLAX46Y46*%
G04 Gerber Fmt 4.6, Leading zero omitted, Abs format (unit mm)*
G04 Created by KiCad (PCBNEW 4.0.6) date 05/18/18 15:07:17*
%MOMM*%
%LPD*%
G01*
G04 APERTURE LIST*
%ADD10C,0.100000*%
%ADD11C,0.120000*%
%ADD12C,0.150000*%
G04 APERTURE END LIST*
D10*
X124810000Y-159505000D02*
X124810000Y-121505000D01*
X73310000Y-159505000D02*
X124810000Y-159505000D01*
X73310000Y-121505000D02*
X73310000Y-159505000D01*
X124810000Y-121505000D02*
X73310000Y-121505000D01*
D11*
X144720000Y-145990000D02*
X149920000Y-145990000D01*
X144720000Y-158750000D02*
X144720000Y-145990000D01*
X149920000Y-161350000D02*
X149920000Y-145990000D01*
X144720000Y-158750000D02*
X147320000Y-158750000D01*
X147320000Y-158750000D02*
X147320000Y-161350000D01*
X147320000Y-161350000D02*
X149920000Y-161350000D01*
X144720000Y-160020000D02*
X144720000Y-161350000D01*
X144720000Y-161350000D02*
X146050000Y-161350000D01*
X138150000Y-158360000D02*
X139350000Y-158360000D01*
X139350000Y-156600000D02*
X138150000Y-156600000D01*
X138150000Y-155820000D02*
X139350000Y-155820000D01*
X139350000Y-154060000D02*
X138150000Y-154060000D01*
X138150000Y-153280000D02*
X139350000Y-153280000D01*
X139350000Y-151520000D02*
X138150000Y-151520000D01*
X138150000Y-150740000D02*
X139350000Y-150740000D01*
X139350000Y-148980000D02*
X138150000Y-148980000D01*
X138150000Y-148200000D02*
X139350000Y-148200000D01*
X139350000Y-146440000D02*
X138150000Y-146440000D01*
X139345000Y-136280000D02*
X138145000Y-136280000D01*
X138145000Y-138040000D02*
X139345000Y-138040000D01*
X139345000Y-138820000D02*
X138145000Y-138820000D01*
X138145000Y-140580000D02*
X139345000Y-140580000D01*
X139345000Y-141360000D02*
X138145000Y-141360000D01*
X138145000Y-143120000D02*
X139345000Y-143120000D01*
X139350000Y-143900000D02*
X138150000Y-143900000D01*
X138150000Y-145660000D02*
X139350000Y-145660000D01*
D12*
X123590714Y-116608571D02*
X123447857Y-116656190D01*
X123400238Y-116703810D01*
X123352619Y-116799048D01*
X123352619Y-116941905D01*
X123400238Y-117037143D01*
X123447857Y-117084762D01*
X123543095Y-117132381D01*
X123924048Y-117132381D01*
X123924048Y-116132381D01*
X123590714Y-116132381D01*
X123495476Y-116180000D01*
X123447857Y-116227619D01*
X123400238Y-116322857D01*
X123400238Y-116418095D01*
X123447857Y-116513333D01*
X123495476Y-116560952D01*
X123590714Y-116608571D01*
X123924048Y-116608571D01*
X123066905Y-116132381D02*
X122495476Y-116132381D01*
X122781191Y-117132381D02*
X122781191Y-116132381D01*
X121638333Y-117132381D02*
X122209762Y-117132381D01*
X121924048Y-117132381D02*
X121924048Y-116132381D01*
X122019286Y-116275238D01*
X122114524Y-116370476D01*
X122209762Y-116418095D01*
X147653333Y-161802381D02*
X147653333Y-162516667D01*
X147700953Y-162659524D01*
X147796191Y-162754762D01*
X147939048Y-162802381D01*
X148034286Y-162802381D01*
X146653333Y-162802381D02*
X147224762Y-162802381D01*
X146939048Y-162802381D02*
X146939048Y-161802381D01*
X147034286Y-161945238D01*
X147129524Y-162040476D01*
X147224762Y-162088095D01*
X138916666Y-156282381D02*
X139250000Y-155806190D01*
X139488095Y-156282381D02*
X139488095Y-155282381D01*
X139107142Y-155282381D01*
X139011904Y-155330000D01*
X138964285Y-155377619D01*
X138916666Y-155472857D01*
X138916666Y-155615714D01*
X138964285Y-155710952D01*
X139011904Y-155758571D01*
X139107142Y-155806190D01*
X139488095Y-155806190D01*
X137964285Y-156282381D02*
X138535714Y-156282381D01*
X138250000Y-156282381D02*
X138250000Y-155282381D01*
X138345238Y-155425238D01*
X138440476Y-155520476D01*
X138535714Y-155568095D01*
X139202381Y-153123334D02*
X138726190Y-152790000D01*
X139202381Y-152551905D02*
X138202381Y-152551905D01*
X138202381Y-152932858D01*
X138250000Y-153028096D01*
X138297619Y-153075715D01*
X138392857Y-153123334D01*
X138535714Y-153123334D01*
X138630952Y-153075715D01*
X138678571Y-153028096D01*
X138726190Y-152932858D01*
X138726190Y-152551905D01*
X138297619Y-153504286D02*
X138250000Y-153551905D01*
X138202381Y-153647143D01*
X138202381Y-153885239D01*
X138250000Y-153980477D01*
X138297619Y-154028096D01*
X138392857Y-154075715D01*
X138488095Y-154075715D01*
X138630952Y-154028096D01*
X139202381Y-153456667D01*
X139202381Y-154075715D01*
X138916666Y-151202381D02*
X139250000Y-150726190D01*
X139488095Y-151202381D02*
X139488095Y-150202381D01*
X139107142Y-150202381D01*
X139011904Y-150250000D01*
X138964285Y-150297619D01*
X138916666Y-150392857D01*
X138916666Y-150535714D01*
X138964285Y-150630952D01*
X139011904Y-150678571D01*
X139107142Y-150726190D01*
X139488095Y-150726190D01*
X138583333Y-150202381D02*
X137964285Y-150202381D01*
X138297619Y-150583333D01*
X138154761Y-150583333D01*
X138059523Y-150630952D01*
X138011904Y-150678571D01*
X137964285Y-150773810D01*
X137964285Y-151011905D01*
X138011904Y-151107143D01*
X138059523Y-151154762D01*
X138154761Y-151202381D01*
X138440476Y-151202381D01*
X138535714Y-151154762D01*
X138583333Y-151107143D01*
X138916666Y-148662381D02*
X139250000Y-148186190D01*
X139488095Y-148662381D02*
X139488095Y-147662381D01*
X139107142Y-147662381D01*
X139011904Y-147710000D01*
X138964285Y-147757619D01*
X138916666Y-147852857D01*
X138916666Y-147995714D01*
X138964285Y-148090952D01*
X139011904Y-148138571D01*
X139107142Y-148186190D01*
X139488095Y-148186190D01*
X138059523Y-147995714D02*
X138059523Y-148662381D01*
X138297619Y-147614762D02*
X138535714Y-148329048D01*
X137916666Y-148329048D01*
X138916666Y-146122381D02*
X139250000Y-145646190D01*
X139488095Y-146122381D02*
X139488095Y-145122381D01*
X139107142Y-145122381D01*
X139011904Y-145170000D01*
X138964285Y-145217619D01*
X138916666Y-145312857D01*
X138916666Y-145455714D01*
X138964285Y-145550952D01*
X139011904Y-145598571D01*
X139107142Y-145646190D01*
X139488095Y-145646190D01*
X138011904Y-145122381D02*
X138488095Y-145122381D01*
X138535714Y-145598571D01*
X138488095Y-145550952D01*
X138392857Y-145503333D01*
X138154761Y-145503333D01*
X138059523Y-145550952D01*
X138011904Y-145598571D01*
X137964285Y-145693810D01*
X137964285Y-145931905D01*
X138011904Y-146027143D01*
X138059523Y-146074762D01*
X138154761Y-146122381D01*
X138392857Y-146122381D01*
X138488095Y-146074762D01*
X138535714Y-146027143D01*
X138911666Y-139262381D02*
X139245000Y-138786190D01*
X139483095Y-139262381D02*
X139483095Y-138262381D01*
X139102142Y-138262381D01*
X139006904Y-138310000D01*
X138959285Y-138357619D01*
X138911666Y-138452857D01*
X138911666Y-138595714D01*
X138959285Y-138690952D01*
X139006904Y-138738571D01*
X139102142Y-138786190D01*
X139483095Y-138786190D01*
X138054523Y-138262381D02*
X138245000Y-138262381D01*
X138340238Y-138310000D01*
X138387857Y-138357619D01*
X138483095Y-138500476D01*
X138530714Y-138690952D01*
X138530714Y-139071905D01*
X138483095Y-139167143D01*
X138435476Y-139214762D01*
X138340238Y-139262381D01*
X138149761Y-139262381D01*
X138054523Y-139214762D01*
X138006904Y-139167143D01*
X137959285Y-139071905D01*
X137959285Y-138833810D01*
X138006904Y-138738571D01*
X138054523Y-138690952D01*
X138149761Y-138643333D01*
X138340238Y-138643333D01*
X138435476Y-138690952D01*
X138483095Y-138738571D01*
X138530714Y-138833810D01*
X138911666Y-141802381D02*
X139245000Y-141326190D01*
X139483095Y-141802381D02*
X139483095Y-140802381D01*
X139102142Y-140802381D01*
X139006904Y-140850000D01*
X138959285Y-140897619D01*
X138911666Y-140992857D01*
X138911666Y-141135714D01*
X138959285Y-141230952D01*
X139006904Y-141278571D01*
X139102142Y-141326190D01*
X139483095Y-141326190D01*
X138578333Y-140802381D02*
X137911666Y-140802381D01*
X138340238Y-141802381D01*
X138911666Y-144342381D02*
X139245000Y-143866190D01*
X139483095Y-144342381D02*
X139483095Y-143342381D01*
X139102142Y-143342381D01*
X139006904Y-143390000D01*
X138959285Y-143437619D01*
X138911666Y-143532857D01*
X138911666Y-143675714D01*
X138959285Y-143770952D01*
X139006904Y-143818571D01*
X139102142Y-143866190D01*
X139483095Y-143866190D01*
X138340238Y-143770952D02*
X138435476Y-143723333D01*
X138483095Y-143675714D01*
X138530714Y-143580476D01*
X138530714Y-143532857D01*
X138483095Y-143437619D01*
X138435476Y-143390000D01*
X138340238Y-143342381D01*
X138149761Y-143342381D01*
X138054523Y-143390000D01*
X138006904Y-143437619D01*
X137959285Y-143532857D01*
X137959285Y-143580476D01*
X138006904Y-143675714D01*
X138054523Y-143723333D01*
X138149761Y-143770952D01*
X138340238Y-143770952D01*
X138435476Y-143818571D01*
X138483095Y-143866190D01*
X138530714Y-143961429D01*
X138530714Y-144151905D01*
X138483095Y-144247143D01*
X138435476Y-144294762D01*
X138340238Y-144342381D01*
X138149761Y-144342381D01*
X138054523Y-144294762D01*
X138006904Y-144247143D01*
X137959285Y-144151905D01*
X137959285Y-143961429D01*
X138006904Y-143866190D01*
X138054523Y-143818571D01*
X138149761Y-143770952D01*
X138916666Y-146882381D02*
X139250000Y-146406190D01*
X139488095Y-146882381D02*
X139488095Y-145882381D01*
X139107142Y-145882381D01*
X139011904Y-145930000D01*
X138964285Y-145977619D01*
X138916666Y-146072857D01*
X138916666Y-146215714D01*
X138964285Y-146310952D01*
X139011904Y-146358571D01*
X139107142Y-146406190D01*
X139488095Y-146406190D01*
X138440476Y-146882381D02*
X138250000Y-146882381D01*
X138154761Y-146834762D01*
X138107142Y-146787143D01*
X138011904Y-146644286D01*
X137964285Y-146453810D01*
X137964285Y-146072857D01*
X138011904Y-145977619D01*
X138059523Y-145930000D01*
X138154761Y-145882381D01*
X138345238Y-145882381D01*
X138440476Y-145930000D01*
X138488095Y-145977619D01*
X138535714Y-146072857D01*
X138535714Y-146310952D01*
X138488095Y-146406190D01*
X138440476Y-146453810D01*
X138345238Y-146501429D01*
X138154761Y-146501429D01*
X138059523Y-146453810D01*
X138011904Y-146406190D01*
X137964285Y-146310952D01*
M02*
