G04 #@! TF.FileFunction,Copper,L2,Bot,Signal*
%FSLAX46Y46*%
G04 Gerber Fmt 4.6, Leading zero omitted, Abs format (unit mm)*
G04 Created by KiCad (PCBNEW 4.0.6) date 05/18/18 15:07:17*
%MOMM*%
%LPD*%
G01*
G04 APERTURE LIST*
%ADD10C,0.100000*%
%ADD11C,1.700000*%
%ADD12C,1.800000*%
%ADD13C,3.000000*%
%ADD14R,1.700000X1.700000*%
%ADD15O,1.700000X1.700000*%
%ADD16C,6.400000*%
%ADD17R,0.700000X1.300000*%
%ADD18C,2.500000*%
%ADD19C,0.600000*%
%ADD20C,1.000000*%
%ADD21C,0.900000*%
%ADD22C,0.250000*%
%ADD23C,0.254000*%
G04 APERTURE END LIST*
D10*
D11*
X124460000Y-149860000D03*
X129540000Y-149860000D03*
X129540000Y-137160000D03*
X124460000Y-137160000D03*
D12*
X122170000Y-128610000D03*
X122170000Y-140510000D03*
D13*
X99060000Y-128610000D03*
X99060000Y-152400000D03*
D14*
X146050000Y-160020000D03*
D15*
X148590000Y-160020000D03*
X146050000Y-157480000D03*
X148590000Y-157480000D03*
X146050000Y-154940000D03*
X148590000Y-154940000D03*
X146050000Y-152400000D03*
X148590000Y-152400000D03*
X146050000Y-149860000D03*
X148590000Y-149860000D03*
X146050000Y-147320000D03*
X148590000Y-147320000D03*
D16*
X147320000Y-170180000D03*
X147320000Y-116840000D03*
X73660000Y-116840000D03*
X73660000Y-170180000D03*
D17*
X139700000Y-157480000D03*
X137800000Y-157480000D03*
X139700000Y-154940000D03*
X137800000Y-154940000D03*
X139700000Y-152400000D03*
X137800000Y-152400000D03*
X139700000Y-149860000D03*
X137800000Y-149860000D03*
X139700000Y-147320000D03*
X137800000Y-147320000D03*
X137795000Y-137160000D03*
X139695000Y-137160000D03*
X137795000Y-139700000D03*
X139695000Y-139700000D03*
X137795000Y-142240000D03*
X139695000Y-142240000D03*
X137800000Y-144780000D03*
X139700000Y-144780000D03*
D11*
X83820000Y-149860000D03*
X88900000Y-149860000D03*
X88900000Y-137160000D03*
X83820000Y-137160000D03*
X83566000Y-167640000D03*
X88646000Y-167640000D03*
X88646000Y-154940000D03*
X83566000Y-154940000D03*
X104140000Y-167640000D03*
X109220000Y-167640000D03*
X109220000Y-154940000D03*
X104140000Y-154940000D03*
X124460000Y-167640000D03*
X129540000Y-167640000D03*
X129540000Y-154940000D03*
X124460000Y-154940000D03*
X104140000Y-149860000D03*
X109220000Y-149860000D03*
X109220000Y-137160000D03*
X104140000Y-137160000D03*
X83820000Y-132080000D03*
X88900000Y-132080000D03*
X88900000Y-119380000D03*
X83820000Y-119380000D03*
X104140000Y-132080000D03*
X109220000Y-132080000D03*
X109220000Y-119380000D03*
X104140000Y-119380000D03*
X124460000Y-132080000D03*
X129540000Y-132080000D03*
X129540000Y-119380000D03*
X124460000Y-119380000D03*
D18*
X148336000Y-128778000D03*
X148336000Y-133378000D03*
D19*
X137668000Y-157480000D03*
X137800000Y-154940000D03*
X137800000Y-152400000D03*
X137668000Y-139700000D03*
X137800000Y-149860000D03*
X137668000Y-142240000D03*
X137800000Y-147320000D03*
X137668000Y-144780000D03*
D20*
X148336000Y-128778000D02*
X148308000Y-128750000D01*
X148308000Y-128750000D02*
X122310000Y-128750000D01*
D21*
X139695000Y-137160000D02*
X139695000Y-136889998D01*
X139695000Y-136889998D02*
X138665001Y-135859999D01*
X138665001Y-135859999D02*
X133060003Y-135859999D01*
X133060003Y-135859999D02*
X128410002Y-140510000D01*
X128410002Y-140510000D02*
X123442792Y-140510000D01*
X123442792Y-140510000D02*
X122170000Y-140510000D01*
X139695000Y-139700000D02*
X139695000Y-137160000D01*
X139695000Y-142240000D02*
X139695000Y-139700000D01*
X139700000Y-144780000D02*
X139700000Y-142245000D01*
X139700000Y-142245000D02*
X139695000Y-142240000D01*
X139700000Y-147320000D02*
X139700000Y-144780000D01*
X139700000Y-147320000D02*
X139700000Y-149860000D01*
X139700000Y-152400000D02*
X139700000Y-149860000D01*
X139700000Y-154940000D02*
X139700000Y-152400000D01*
X139700000Y-157480000D02*
X139700000Y-154940000D01*
X146050000Y-160020000D02*
X142240000Y-160020000D01*
X142240000Y-160020000D02*
X139700000Y-157480000D01*
D22*
X139695000Y-136860000D02*
X139695000Y-137160000D01*
X88696800Y-154940000D02*
X88696800Y-167640000D01*
X109220000Y-154940000D02*
X109220000Y-167640000D01*
X129540000Y-154940000D02*
X129540000Y-167640000D01*
X109220000Y-132080000D02*
X109220000Y-119380000D01*
X88900000Y-149860000D02*
X88900000Y-137160000D01*
X88900000Y-132080000D02*
X88900000Y-119380000D01*
X109220000Y-149860000D02*
X109220000Y-137160000D01*
D23*
G36*
X143484336Y-117599482D02*
X144066950Y-119009515D01*
X145144811Y-120089259D01*
X146553825Y-120674333D01*
X148079482Y-120675664D01*
X149489515Y-120093050D01*
X150569259Y-119015189D01*
X151154333Y-117606175D01*
X151154891Y-116967000D01*
X151690000Y-116967000D01*
X151690000Y-170053000D01*
X151155112Y-170053000D01*
X151155664Y-169420518D01*
X150573050Y-168010485D01*
X149495189Y-166930741D01*
X148086175Y-166345667D01*
X146560518Y-166344336D01*
X145150485Y-166926950D01*
X144070741Y-168004811D01*
X143485667Y-169413825D01*
X143485109Y-170053000D01*
X78867000Y-170053000D01*
X78867000Y-168683958D01*
X82701647Y-168683958D01*
X82781920Y-168935259D01*
X83337279Y-169136718D01*
X83927458Y-169110315D01*
X84350080Y-168935259D01*
X84430353Y-168683958D01*
X83566000Y-167819605D01*
X82701647Y-168683958D01*
X78867000Y-168683958D01*
X78867000Y-167411279D01*
X82069282Y-167411279D01*
X82095685Y-168001458D01*
X82270741Y-168424080D01*
X82522042Y-168504353D01*
X83386395Y-167640000D01*
X83745605Y-167640000D01*
X84609958Y-168504353D01*
X84861259Y-168424080D01*
X85062718Y-167868721D01*
X85036315Y-167278542D01*
X84861259Y-166855920D01*
X84609958Y-166775647D01*
X83745605Y-167640000D01*
X83386395Y-167640000D01*
X82522042Y-166775647D01*
X82270741Y-166855920D01*
X82069282Y-167411279D01*
X78867000Y-167411279D01*
X78867000Y-166596042D01*
X82701647Y-166596042D01*
X83566000Y-167460395D01*
X84430353Y-166596042D01*
X84350080Y-166344741D01*
X83794721Y-166143282D01*
X83204542Y-166169685D01*
X82781920Y-166344741D01*
X82701647Y-166596042D01*
X78867000Y-166596042D01*
X78867000Y-155983958D01*
X82701647Y-155983958D01*
X82781920Y-156235259D01*
X83337279Y-156436718D01*
X83927458Y-156410315D01*
X84350080Y-156235259D01*
X84430353Y-155983958D01*
X83566000Y-155119605D01*
X82701647Y-155983958D01*
X78867000Y-155983958D01*
X78867000Y-154711279D01*
X82069282Y-154711279D01*
X82095685Y-155301458D01*
X82270741Y-155724080D01*
X82522042Y-155804353D01*
X83386395Y-154940000D01*
X83745605Y-154940000D01*
X84609958Y-155804353D01*
X84861259Y-155724080D01*
X85039005Y-155234089D01*
X87160743Y-155234089D01*
X87386344Y-155780086D01*
X87803717Y-156198188D01*
X87936800Y-156253449D01*
X87936800Y-166326263D01*
X87805914Y-166380344D01*
X87387812Y-166797717D01*
X87161258Y-167343319D01*
X87160743Y-167934089D01*
X87386344Y-168480086D01*
X87803717Y-168898188D01*
X88349319Y-169124742D01*
X88940089Y-169125257D01*
X89486086Y-168899656D01*
X89702160Y-168683958D01*
X103275647Y-168683958D01*
X103355920Y-168935259D01*
X103911279Y-169136718D01*
X104501458Y-169110315D01*
X104924080Y-168935259D01*
X105004353Y-168683958D01*
X104140000Y-167819605D01*
X103275647Y-168683958D01*
X89702160Y-168683958D01*
X89904188Y-168482283D01*
X90130742Y-167936681D01*
X90131200Y-167411279D01*
X102643282Y-167411279D01*
X102669685Y-168001458D01*
X102844741Y-168424080D01*
X103096042Y-168504353D01*
X103960395Y-167640000D01*
X104319605Y-167640000D01*
X105183958Y-168504353D01*
X105435259Y-168424080D01*
X105636718Y-167868721D01*
X105610315Y-167278542D01*
X105435259Y-166855920D01*
X105183958Y-166775647D01*
X104319605Y-167640000D01*
X103960395Y-167640000D01*
X103096042Y-166775647D01*
X102844741Y-166855920D01*
X102643282Y-167411279D01*
X90131200Y-167411279D01*
X90131257Y-167345911D01*
X89905656Y-166799914D01*
X89702140Y-166596042D01*
X103275647Y-166596042D01*
X104140000Y-167460395D01*
X105004353Y-166596042D01*
X104924080Y-166344741D01*
X104368721Y-166143282D01*
X103778542Y-166169685D01*
X103355920Y-166344741D01*
X103275647Y-166596042D01*
X89702140Y-166596042D01*
X89488283Y-166381812D01*
X89456800Y-166368739D01*
X89456800Y-156211757D01*
X89486086Y-156199656D01*
X89702160Y-155983958D01*
X103275647Y-155983958D01*
X103355920Y-156235259D01*
X103911279Y-156436718D01*
X104501458Y-156410315D01*
X104924080Y-156235259D01*
X105004353Y-155983958D01*
X104140000Y-155119605D01*
X103275647Y-155983958D01*
X89702160Y-155983958D01*
X89904188Y-155782283D01*
X90130742Y-155236681D01*
X90131200Y-154711279D01*
X102643282Y-154711279D01*
X102669685Y-155301458D01*
X102844741Y-155724080D01*
X103096042Y-155804353D01*
X103960395Y-154940000D01*
X104319605Y-154940000D01*
X105183958Y-155804353D01*
X105435259Y-155724080D01*
X105613005Y-155234089D01*
X107734743Y-155234089D01*
X107960344Y-155780086D01*
X108377717Y-156198188D01*
X108460000Y-156232355D01*
X108460000Y-166347253D01*
X108379914Y-166380344D01*
X107961812Y-166797717D01*
X107735258Y-167343319D01*
X107734743Y-167934089D01*
X107960344Y-168480086D01*
X108377717Y-168898188D01*
X108923319Y-169124742D01*
X109514089Y-169125257D01*
X110060086Y-168899656D01*
X110276160Y-168683958D01*
X123595647Y-168683958D01*
X123675920Y-168935259D01*
X124231279Y-169136718D01*
X124821458Y-169110315D01*
X125244080Y-168935259D01*
X125324353Y-168683958D01*
X124460000Y-167819605D01*
X123595647Y-168683958D01*
X110276160Y-168683958D01*
X110478188Y-168482283D01*
X110704742Y-167936681D01*
X110705200Y-167411279D01*
X122963282Y-167411279D01*
X122989685Y-168001458D01*
X123164741Y-168424080D01*
X123416042Y-168504353D01*
X124280395Y-167640000D01*
X124639605Y-167640000D01*
X125503958Y-168504353D01*
X125755259Y-168424080D01*
X125956718Y-167868721D01*
X125930315Y-167278542D01*
X125755259Y-166855920D01*
X125503958Y-166775647D01*
X124639605Y-167640000D01*
X124280395Y-167640000D01*
X123416042Y-166775647D01*
X123164741Y-166855920D01*
X122963282Y-167411279D01*
X110705200Y-167411279D01*
X110705257Y-167345911D01*
X110479656Y-166799914D01*
X110276140Y-166596042D01*
X123595647Y-166596042D01*
X124460000Y-167460395D01*
X125324353Y-166596042D01*
X125244080Y-166344741D01*
X124688721Y-166143282D01*
X124098542Y-166169685D01*
X123675920Y-166344741D01*
X123595647Y-166596042D01*
X110276140Y-166596042D01*
X110062283Y-166381812D01*
X109980000Y-166347645D01*
X109980000Y-156232747D01*
X110060086Y-156199656D01*
X110276160Y-155983958D01*
X123595647Y-155983958D01*
X123675920Y-156235259D01*
X124231279Y-156436718D01*
X124821458Y-156410315D01*
X125244080Y-156235259D01*
X125324353Y-155983958D01*
X124460000Y-155119605D01*
X123595647Y-155983958D01*
X110276160Y-155983958D01*
X110478188Y-155782283D01*
X110704742Y-155236681D01*
X110705200Y-154711279D01*
X122963282Y-154711279D01*
X122989685Y-155301458D01*
X123164741Y-155724080D01*
X123416042Y-155804353D01*
X124280395Y-154940000D01*
X124639605Y-154940000D01*
X125503958Y-155804353D01*
X125755259Y-155724080D01*
X125933005Y-155234089D01*
X128054743Y-155234089D01*
X128280344Y-155780086D01*
X128697717Y-156198188D01*
X128780000Y-156232355D01*
X128780000Y-166347253D01*
X128699914Y-166380344D01*
X128281812Y-166797717D01*
X128055258Y-167343319D01*
X128054743Y-167934089D01*
X128280344Y-168480086D01*
X128697717Y-168898188D01*
X129243319Y-169124742D01*
X129834089Y-169125257D01*
X130380086Y-168899656D01*
X130798188Y-168482283D01*
X131024742Y-167936681D01*
X131025257Y-167345911D01*
X130799656Y-166799914D01*
X130382283Y-166381812D01*
X130300000Y-166347645D01*
X130300000Y-156232747D01*
X130380086Y-156199656D01*
X130798188Y-155782283D01*
X131024742Y-155236681D01*
X131025257Y-154645911D01*
X130799656Y-154099914D01*
X130382283Y-153681812D01*
X129836681Y-153455258D01*
X129245911Y-153454743D01*
X128699914Y-153680344D01*
X128281812Y-154097717D01*
X128055258Y-154643319D01*
X128054743Y-155234089D01*
X125933005Y-155234089D01*
X125956718Y-155168721D01*
X125930315Y-154578542D01*
X125755259Y-154155920D01*
X125503958Y-154075647D01*
X124639605Y-154940000D01*
X124280395Y-154940000D01*
X123416042Y-154075647D01*
X123164741Y-154155920D01*
X122963282Y-154711279D01*
X110705200Y-154711279D01*
X110705257Y-154645911D01*
X110479656Y-154099914D01*
X110276140Y-153896042D01*
X123595647Y-153896042D01*
X124460000Y-154760395D01*
X125324353Y-153896042D01*
X125244080Y-153644741D01*
X124688721Y-153443282D01*
X124098542Y-153469685D01*
X123675920Y-153644741D01*
X123595647Y-153896042D01*
X110276140Y-153896042D01*
X110062283Y-153681812D01*
X109516681Y-153455258D01*
X108925911Y-153454743D01*
X108379914Y-153680344D01*
X107961812Y-154097717D01*
X107735258Y-154643319D01*
X107734743Y-155234089D01*
X105613005Y-155234089D01*
X105636718Y-155168721D01*
X105610315Y-154578542D01*
X105435259Y-154155920D01*
X105183958Y-154075647D01*
X104319605Y-154940000D01*
X103960395Y-154940000D01*
X103096042Y-154075647D01*
X102844741Y-154155920D01*
X102643282Y-154711279D01*
X90131200Y-154711279D01*
X90131257Y-154645911D01*
X89905656Y-154099914D01*
X89488283Y-153681812D01*
X88942681Y-153455258D01*
X88351911Y-153454743D01*
X87805914Y-153680344D01*
X87387812Y-154097717D01*
X87161258Y-154643319D01*
X87160743Y-155234089D01*
X85039005Y-155234089D01*
X85062718Y-155168721D01*
X85036315Y-154578542D01*
X84861259Y-154155920D01*
X84609958Y-154075647D01*
X83745605Y-154940000D01*
X83386395Y-154940000D01*
X82522042Y-154075647D01*
X82270741Y-154155920D01*
X82069282Y-154711279D01*
X78867000Y-154711279D01*
X78867000Y-153896042D01*
X82701647Y-153896042D01*
X83566000Y-154760395D01*
X84430353Y-153896042D01*
X84350080Y-153644741D01*
X83794721Y-153443282D01*
X83204542Y-153469685D01*
X82781920Y-153644741D01*
X82701647Y-153896042D01*
X78867000Y-153896042D01*
X78867000Y-152822815D01*
X96924630Y-152822815D01*
X97248980Y-153607800D01*
X97849041Y-154208909D01*
X98633459Y-154534628D01*
X99482815Y-154535370D01*
X100267800Y-154211020D01*
X100583328Y-153896042D01*
X103275647Y-153896042D01*
X104140000Y-154760395D01*
X105004353Y-153896042D01*
X104924080Y-153644741D01*
X104368721Y-153443282D01*
X103778542Y-153469685D01*
X103355920Y-153644741D01*
X103275647Y-153896042D01*
X100583328Y-153896042D01*
X100868909Y-153610959D01*
X101194628Y-152826541D01*
X101195370Y-151977185D01*
X100871020Y-151192200D01*
X100583281Y-150903958D01*
X103275647Y-150903958D01*
X103355920Y-151155259D01*
X103911279Y-151356718D01*
X104501458Y-151330315D01*
X104924080Y-151155259D01*
X105004353Y-150903958D01*
X104140000Y-150039605D01*
X103275647Y-150903958D01*
X100583281Y-150903958D01*
X100270959Y-150591091D01*
X99486541Y-150265372D01*
X98637185Y-150264630D01*
X97852200Y-150588980D01*
X97251091Y-151189041D01*
X96925372Y-151973459D01*
X96924630Y-152822815D01*
X78867000Y-152822815D01*
X78867000Y-150903958D01*
X82955647Y-150903958D01*
X83035920Y-151155259D01*
X83591279Y-151356718D01*
X84181458Y-151330315D01*
X84604080Y-151155259D01*
X84684353Y-150903958D01*
X83820000Y-150039605D01*
X82955647Y-150903958D01*
X78867000Y-150903958D01*
X78867000Y-149631279D01*
X82323282Y-149631279D01*
X82349685Y-150221458D01*
X82524741Y-150644080D01*
X82776042Y-150724353D01*
X83640395Y-149860000D01*
X83999605Y-149860000D01*
X84863958Y-150724353D01*
X85115259Y-150644080D01*
X85316718Y-150088721D01*
X85290315Y-149498542D01*
X85115259Y-149075920D01*
X84863958Y-148995647D01*
X83999605Y-149860000D01*
X83640395Y-149860000D01*
X82776042Y-148995647D01*
X82524741Y-149075920D01*
X82323282Y-149631279D01*
X78867000Y-149631279D01*
X78867000Y-148816042D01*
X82955647Y-148816042D01*
X83820000Y-149680395D01*
X84684353Y-148816042D01*
X84604080Y-148564741D01*
X84048721Y-148363282D01*
X83458542Y-148389685D01*
X83035920Y-148564741D01*
X82955647Y-148816042D01*
X78867000Y-148816042D01*
X78867000Y-138203958D01*
X82955647Y-138203958D01*
X83035920Y-138455259D01*
X83591279Y-138656718D01*
X84181458Y-138630315D01*
X84604080Y-138455259D01*
X84684353Y-138203958D01*
X83820000Y-137339605D01*
X82955647Y-138203958D01*
X78867000Y-138203958D01*
X78867000Y-136931279D01*
X82323282Y-136931279D01*
X82349685Y-137521458D01*
X82524741Y-137944080D01*
X82776042Y-138024353D01*
X83640395Y-137160000D01*
X83999605Y-137160000D01*
X84863958Y-138024353D01*
X85115259Y-137944080D01*
X85293005Y-137454089D01*
X87414743Y-137454089D01*
X87640344Y-138000086D01*
X88057717Y-138418188D01*
X88140000Y-138452355D01*
X88140000Y-148567253D01*
X88059914Y-148600344D01*
X87641812Y-149017717D01*
X87415258Y-149563319D01*
X87414743Y-150154089D01*
X87640344Y-150700086D01*
X88057717Y-151118188D01*
X88603319Y-151344742D01*
X89194089Y-151345257D01*
X89740086Y-151119656D01*
X90158188Y-150702283D01*
X90384742Y-150156681D01*
X90385200Y-149631279D01*
X102643282Y-149631279D01*
X102669685Y-150221458D01*
X102844741Y-150644080D01*
X103096042Y-150724353D01*
X103960395Y-149860000D01*
X104319605Y-149860000D01*
X105183958Y-150724353D01*
X105435259Y-150644080D01*
X105636718Y-150088721D01*
X105610315Y-149498542D01*
X105435259Y-149075920D01*
X105183958Y-148995647D01*
X104319605Y-149860000D01*
X103960395Y-149860000D01*
X103096042Y-148995647D01*
X102844741Y-149075920D01*
X102643282Y-149631279D01*
X90385200Y-149631279D01*
X90385257Y-149565911D01*
X90159656Y-149019914D01*
X89956140Y-148816042D01*
X103275647Y-148816042D01*
X104140000Y-149680395D01*
X105004353Y-148816042D01*
X104924080Y-148564741D01*
X104368721Y-148363282D01*
X103778542Y-148389685D01*
X103355920Y-148564741D01*
X103275647Y-148816042D01*
X89956140Y-148816042D01*
X89742283Y-148601812D01*
X89660000Y-148567645D01*
X89660000Y-138452747D01*
X89740086Y-138419656D01*
X89956160Y-138203958D01*
X103275647Y-138203958D01*
X103355920Y-138455259D01*
X103911279Y-138656718D01*
X104501458Y-138630315D01*
X104924080Y-138455259D01*
X105004353Y-138203958D01*
X104140000Y-137339605D01*
X103275647Y-138203958D01*
X89956160Y-138203958D01*
X90158188Y-138002283D01*
X90384742Y-137456681D01*
X90385200Y-136931279D01*
X102643282Y-136931279D01*
X102669685Y-137521458D01*
X102844741Y-137944080D01*
X103096042Y-138024353D01*
X103960395Y-137160000D01*
X104319605Y-137160000D01*
X105183958Y-138024353D01*
X105435259Y-137944080D01*
X105613005Y-137454089D01*
X107734743Y-137454089D01*
X107960344Y-138000086D01*
X108377717Y-138418188D01*
X108460000Y-138452355D01*
X108460000Y-148567253D01*
X108379914Y-148600344D01*
X107961812Y-149017717D01*
X107735258Y-149563319D01*
X107734743Y-150154089D01*
X107960344Y-150700086D01*
X108377717Y-151118188D01*
X108923319Y-151344742D01*
X109514089Y-151345257D01*
X110060086Y-151119656D01*
X110276160Y-150903958D01*
X123595647Y-150903958D01*
X123675920Y-151155259D01*
X124231279Y-151356718D01*
X124821458Y-151330315D01*
X125244080Y-151155259D01*
X125324353Y-150903958D01*
X124460000Y-150039605D01*
X123595647Y-150903958D01*
X110276160Y-150903958D01*
X110478188Y-150702283D01*
X110704742Y-150156681D01*
X110705200Y-149631279D01*
X122963282Y-149631279D01*
X122989685Y-150221458D01*
X123164741Y-150644080D01*
X123416042Y-150724353D01*
X124280395Y-149860000D01*
X124639605Y-149860000D01*
X125503958Y-150724353D01*
X125755259Y-150644080D01*
X125933005Y-150154089D01*
X128054743Y-150154089D01*
X128280344Y-150700086D01*
X128697717Y-151118188D01*
X129243319Y-151344742D01*
X129834089Y-151345257D01*
X130380086Y-151119656D01*
X130798188Y-150702283D01*
X131024742Y-150156681D01*
X131025257Y-149565911D01*
X130799656Y-149019914D01*
X130382283Y-148601812D01*
X129836681Y-148375258D01*
X129245911Y-148374743D01*
X128699914Y-148600344D01*
X128281812Y-149017717D01*
X128055258Y-149563319D01*
X128054743Y-150154089D01*
X125933005Y-150154089D01*
X125956718Y-150088721D01*
X125930315Y-149498542D01*
X125755259Y-149075920D01*
X125503958Y-148995647D01*
X124639605Y-149860000D01*
X124280395Y-149860000D01*
X123416042Y-148995647D01*
X123164741Y-149075920D01*
X122963282Y-149631279D01*
X110705200Y-149631279D01*
X110705257Y-149565911D01*
X110479656Y-149019914D01*
X110276140Y-148816042D01*
X123595647Y-148816042D01*
X124460000Y-149680395D01*
X125324353Y-148816042D01*
X125244080Y-148564741D01*
X124688721Y-148363282D01*
X124098542Y-148389685D01*
X123675920Y-148564741D01*
X123595647Y-148816042D01*
X110276140Y-148816042D01*
X110062283Y-148601812D01*
X109980000Y-148567645D01*
X109980000Y-140813991D01*
X120634735Y-140813991D01*
X120867932Y-141378371D01*
X121299357Y-141810551D01*
X121863330Y-142044733D01*
X122473991Y-142045265D01*
X123038371Y-141812068D01*
X123255819Y-141595000D01*
X128410002Y-141595000D01*
X128825214Y-141512409D01*
X129177213Y-141277211D01*
X133509425Y-136944999D01*
X136797560Y-136944999D01*
X136797560Y-137810000D01*
X136841838Y-138045317D01*
X136980910Y-138261441D01*
X137193110Y-138406431D01*
X137304523Y-138428993D01*
X137209683Y-138446838D01*
X136993559Y-138585910D01*
X136848569Y-138798110D01*
X136797560Y-139050000D01*
X136797560Y-139358114D01*
X136733162Y-139513201D01*
X136732838Y-139885167D01*
X136797560Y-140041807D01*
X136797560Y-140350000D01*
X136841838Y-140585317D01*
X136980910Y-140801441D01*
X137193110Y-140946431D01*
X137304523Y-140968993D01*
X137209683Y-140986838D01*
X136993559Y-141125910D01*
X136848569Y-141338110D01*
X136797560Y-141590000D01*
X136797560Y-141898114D01*
X136733162Y-142053201D01*
X136732838Y-142425167D01*
X136797560Y-142581807D01*
X136797560Y-142890000D01*
X136841838Y-143125317D01*
X136980910Y-143341441D01*
X137193110Y-143486431D01*
X137306931Y-143509480D01*
X137214683Y-143526838D01*
X136998559Y-143665910D01*
X136853569Y-143878110D01*
X136802560Y-144130000D01*
X136802560Y-144426073D01*
X136733162Y-144593201D01*
X136732838Y-144965167D01*
X136802560Y-145133908D01*
X136802560Y-145430000D01*
X136846838Y-145665317D01*
X136985910Y-145881441D01*
X137198110Y-146026431D01*
X137309523Y-146048993D01*
X137214683Y-146066838D01*
X136998559Y-146205910D01*
X136853569Y-146418110D01*
X136802560Y-146670000D01*
X136802560Y-147970000D01*
X136846838Y-148205317D01*
X136985910Y-148421441D01*
X137198110Y-148566431D01*
X137309523Y-148588993D01*
X137214683Y-148606838D01*
X136998559Y-148745910D01*
X136853569Y-148958110D01*
X136802560Y-149210000D01*
X136802560Y-150510000D01*
X136846838Y-150745317D01*
X136985910Y-150961441D01*
X137198110Y-151106431D01*
X137309523Y-151128993D01*
X137214683Y-151146838D01*
X136998559Y-151285910D01*
X136853569Y-151498110D01*
X136802560Y-151750000D01*
X136802560Y-153050000D01*
X136846838Y-153285317D01*
X136985910Y-153501441D01*
X137198110Y-153646431D01*
X137309523Y-153668993D01*
X137214683Y-153686838D01*
X136998559Y-153825910D01*
X136853569Y-154038110D01*
X136802560Y-154290000D01*
X136802560Y-155590000D01*
X136846838Y-155825317D01*
X136985910Y-156041441D01*
X137198110Y-156186431D01*
X137309523Y-156208993D01*
X137214683Y-156226838D01*
X136998559Y-156365910D01*
X136853569Y-156578110D01*
X136802560Y-156830000D01*
X136802560Y-157126073D01*
X136733162Y-157293201D01*
X136732838Y-157665167D01*
X136802560Y-157833908D01*
X136802560Y-158130000D01*
X136846838Y-158365317D01*
X136985910Y-158581441D01*
X137198110Y-158726431D01*
X137450000Y-158777440D01*
X138150000Y-158777440D01*
X138385317Y-158733162D01*
X138601441Y-158594090D01*
X138746431Y-158381890D01*
X138749081Y-158368803D01*
X138885910Y-158581441D01*
X139098110Y-158726431D01*
X139350000Y-158777440D01*
X139463018Y-158777440D01*
X141472789Y-160787211D01*
X141824788Y-161022409D01*
X142240000Y-161105000D01*
X144596778Y-161105000D01*
X144596838Y-161105317D01*
X144735910Y-161321441D01*
X144948110Y-161466431D01*
X145200000Y-161517440D01*
X146900000Y-161517440D01*
X147135317Y-161473162D01*
X147351441Y-161334090D01*
X147496431Y-161121890D01*
X147519555Y-161007699D01*
X147708642Y-161215183D01*
X148233108Y-161461486D01*
X148463000Y-161340819D01*
X148463000Y-160147000D01*
X148717000Y-160147000D01*
X148717000Y-161340819D01*
X148946892Y-161461486D01*
X149471358Y-161215183D01*
X149861645Y-160786924D01*
X150031476Y-160376890D01*
X149910155Y-160147000D01*
X148717000Y-160147000D01*
X148463000Y-160147000D01*
X148443000Y-160147000D01*
X148443000Y-159893000D01*
X148463000Y-159893000D01*
X148463000Y-159873000D01*
X148717000Y-159873000D01*
X148717000Y-159893000D01*
X149910155Y-159893000D01*
X150031476Y-159663110D01*
X149861645Y-159253076D01*
X149471358Y-158824817D01*
X149328447Y-158757702D01*
X149669147Y-158530054D01*
X149991054Y-158048285D01*
X150104093Y-157480000D01*
X149991054Y-156911715D01*
X149669147Y-156429946D01*
X149339974Y-156210000D01*
X149669147Y-155990054D01*
X149991054Y-155508285D01*
X150104093Y-154940000D01*
X149991054Y-154371715D01*
X149669147Y-153889946D01*
X149339974Y-153670000D01*
X149669147Y-153450054D01*
X149991054Y-152968285D01*
X150104093Y-152400000D01*
X149991054Y-151831715D01*
X149669147Y-151349946D01*
X149339974Y-151130000D01*
X149669147Y-150910054D01*
X149991054Y-150428285D01*
X150104093Y-149860000D01*
X149991054Y-149291715D01*
X149669147Y-148809946D01*
X149339974Y-148590000D01*
X149669147Y-148370054D01*
X149991054Y-147888285D01*
X150104093Y-147320000D01*
X149991054Y-146751715D01*
X149669147Y-146269946D01*
X149187378Y-145948039D01*
X148619093Y-145835000D01*
X148560907Y-145835000D01*
X147992622Y-145948039D01*
X147510853Y-146269946D01*
X147320000Y-146555578D01*
X147129147Y-146269946D01*
X146647378Y-145948039D01*
X146079093Y-145835000D01*
X146020907Y-145835000D01*
X145452622Y-145948039D01*
X144970853Y-146269946D01*
X144648946Y-146751715D01*
X144535907Y-147320000D01*
X144648946Y-147888285D01*
X144970853Y-148370054D01*
X145300026Y-148590000D01*
X144970853Y-148809946D01*
X144648946Y-149291715D01*
X144535907Y-149860000D01*
X144648946Y-150428285D01*
X144970853Y-150910054D01*
X145300026Y-151130000D01*
X144970853Y-151349946D01*
X144648946Y-151831715D01*
X144535907Y-152400000D01*
X144648946Y-152968285D01*
X144970853Y-153450054D01*
X145300026Y-153670000D01*
X144970853Y-153889946D01*
X144648946Y-154371715D01*
X144535907Y-154940000D01*
X144648946Y-155508285D01*
X144970853Y-155990054D01*
X145300026Y-156210000D01*
X144970853Y-156429946D01*
X144648946Y-156911715D01*
X144535907Y-157480000D01*
X144648946Y-158048285D01*
X144970853Y-158530054D01*
X145012452Y-158557850D01*
X144964683Y-158566838D01*
X144748559Y-158705910D01*
X144603569Y-158918110D01*
X144600149Y-158935000D01*
X142689422Y-158935000D01*
X140785000Y-157030578D01*
X140785000Y-142245000D01*
X140780000Y-142219863D01*
X140780000Y-136890003D01*
X140780001Y-136889998D01*
X140697410Y-136474787D01*
X140681269Y-136450630D01*
X140648162Y-136274683D01*
X140509090Y-136058559D01*
X140296890Y-135913569D01*
X140241846Y-135902422D01*
X139432212Y-135092788D01*
X139299515Y-135004123D01*
X139080213Y-134857590D01*
X138665001Y-134774999D01*
X133060003Y-134774999D01*
X132644791Y-134857590D01*
X132425489Y-135004123D01*
X132292792Y-135092788D01*
X130877432Y-136508148D01*
X130799656Y-136319914D01*
X130382283Y-135901812D01*
X129836681Y-135675258D01*
X129245911Y-135674743D01*
X128699914Y-135900344D01*
X128281812Y-136317717D01*
X128055258Y-136863319D01*
X128054743Y-137454089D01*
X128280344Y-138000086D01*
X128697717Y-138418188D01*
X128888268Y-138497312D01*
X127960580Y-139425000D01*
X123255817Y-139425000D01*
X123040643Y-139209449D01*
X122476670Y-138975267D01*
X121866009Y-138974735D01*
X121301629Y-139207932D01*
X120869449Y-139639357D01*
X120635267Y-140203330D01*
X120634735Y-140813991D01*
X109980000Y-140813991D01*
X109980000Y-138452747D01*
X110060086Y-138419656D01*
X110276160Y-138203958D01*
X123595647Y-138203958D01*
X123675920Y-138455259D01*
X124231279Y-138656718D01*
X124821458Y-138630315D01*
X125244080Y-138455259D01*
X125324353Y-138203958D01*
X124460000Y-137339605D01*
X123595647Y-138203958D01*
X110276160Y-138203958D01*
X110478188Y-138002283D01*
X110704742Y-137456681D01*
X110705200Y-136931279D01*
X122963282Y-136931279D01*
X122989685Y-137521458D01*
X123164741Y-137944080D01*
X123416042Y-138024353D01*
X124280395Y-137160000D01*
X124639605Y-137160000D01*
X125503958Y-138024353D01*
X125755259Y-137944080D01*
X125956718Y-137388721D01*
X125930315Y-136798542D01*
X125755259Y-136375920D01*
X125503958Y-136295647D01*
X124639605Y-137160000D01*
X124280395Y-137160000D01*
X123416042Y-136295647D01*
X123164741Y-136375920D01*
X122963282Y-136931279D01*
X110705200Y-136931279D01*
X110705257Y-136865911D01*
X110479656Y-136319914D01*
X110276140Y-136116042D01*
X123595647Y-136116042D01*
X124460000Y-136980395D01*
X125324353Y-136116042D01*
X125244080Y-135864741D01*
X124688721Y-135663282D01*
X124098542Y-135689685D01*
X123675920Y-135864741D01*
X123595647Y-136116042D01*
X110276140Y-136116042D01*
X110062283Y-135901812D01*
X109516681Y-135675258D01*
X108925911Y-135674743D01*
X108379914Y-135900344D01*
X107961812Y-136317717D01*
X107735258Y-136863319D01*
X107734743Y-137454089D01*
X105613005Y-137454089D01*
X105636718Y-137388721D01*
X105610315Y-136798542D01*
X105435259Y-136375920D01*
X105183958Y-136295647D01*
X104319605Y-137160000D01*
X103960395Y-137160000D01*
X103096042Y-136295647D01*
X102844741Y-136375920D01*
X102643282Y-136931279D01*
X90385200Y-136931279D01*
X90385257Y-136865911D01*
X90159656Y-136319914D01*
X89956140Y-136116042D01*
X103275647Y-136116042D01*
X104140000Y-136980395D01*
X105004353Y-136116042D01*
X104924080Y-135864741D01*
X104368721Y-135663282D01*
X103778542Y-135689685D01*
X103355920Y-135864741D01*
X103275647Y-136116042D01*
X89956140Y-136116042D01*
X89742283Y-135901812D01*
X89196681Y-135675258D01*
X88605911Y-135674743D01*
X88059914Y-135900344D01*
X87641812Y-136317717D01*
X87415258Y-136863319D01*
X87414743Y-137454089D01*
X85293005Y-137454089D01*
X85316718Y-137388721D01*
X85290315Y-136798542D01*
X85115259Y-136375920D01*
X84863958Y-136295647D01*
X83999605Y-137160000D01*
X83640395Y-137160000D01*
X82776042Y-136295647D01*
X82524741Y-136375920D01*
X82323282Y-136931279D01*
X78867000Y-136931279D01*
X78867000Y-136116042D01*
X82955647Y-136116042D01*
X83820000Y-136980395D01*
X84684353Y-136116042D01*
X84604080Y-135864741D01*
X84048721Y-135663282D01*
X83458542Y-135689685D01*
X83035920Y-135864741D01*
X82955647Y-136116042D01*
X78867000Y-136116042D01*
X78867000Y-134711320D01*
X147182285Y-134711320D01*
X147311533Y-135004123D01*
X148011806Y-135272388D01*
X148761435Y-135252250D01*
X149360467Y-135004123D01*
X149489715Y-134711320D01*
X148336000Y-133557605D01*
X147182285Y-134711320D01*
X78867000Y-134711320D01*
X78867000Y-133123958D01*
X82955647Y-133123958D01*
X83035920Y-133375259D01*
X83591279Y-133576718D01*
X84181458Y-133550315D01*
X84604080Y-133375259D01*
X84684353Y-133123958D01*
X83820000Y-132259605D01*
X82955647Y-133123958D01*
X78867000Y-133123958D01*
X78867000Y-131851279D01*
X82323282Y-131851279D01*
X82349685Y-132441458D01*
X82524741Y-132864080D01*
X82776042Y-132944353D01*
X83640395Y-132080000D01*
X83999605Y-132080000D01*
X84863958Y-132944353D01*
X85115259Y-132864080D01*
X85316718Y-132308721D01*
X85290315Y-131718542D01*
X85115259Y-131295920D01*
X84863958Y-131215647D01*
X83999605Y-132080000D01*
X83640395Y-132080000D01*
X82776042Y-131215647D01*
X82524741Y-131295920D01*
X82323282Y-131851279D01*
X78867000Y-131851279D01*
X78867000Y-131036042D01*
X82955647Y-131036042D01*
X83820000Y-131900395D01*
X84684353Y-131036042D01*
X84604080Y-130784741D01*
X84048721Y-130583282D01*
X83458542Y-130609685D01*
X83035920Y-130784741D01*
X82955647Y-131036042D01*
X78867000Y-131036042D01*
X78867000Y-120423958D01*
X82955647Y-120423958D01*
X83035920Y-120675259D01*
X83591279Y-120876718D01*
X84181458Y-120850315D01*
X84604080Y-120675259D01*
X84684353Y-120423958D01*
X83820000Y-119559605D01*
X82955647Y-120423958D01*
X78867000Y-120423958D01*
X78867000Y-119151279D01*
X82323282Y-119151279D01*
X82349685Y-119741458D01*
X82524741Y-120164080D01*
X82776042Y-120244353D01*
X83640395Y-119380000D01*
X83999605Y-119380000D01*
X84863958Y-120244353D01*
X85115259Y-120164080D01*
X85293005Y-119674089D01*
X87414743Y-119674089D01*
X87640344Y-120220086D01*
X88057717Y-120638188D01*
X88140000Y-120672355D01*
X88140000Y-130787253D01*
X88059914Y-130820344D01*
X87641812Y-131237717D01*
X87415258Y-131783319D01*
X87414743Y-132374089D01*
X87640344Y-132920086D01*
X88057717Y-133338188D01*
X88603319Y-133564742D01*
X89194089Y-133565257D01*
X89740086Y-133339656D01*
X89956160Y-133123958D01*
X103275647Y-133123958D01*
X103355920Y-133375259D01*
X103911279Y-133576718D01*
X104501458Y-133550315D01*
X104924080Y-133375259D01*
X105004353Y-133123958D01*
X104140000Y-132259605D01*
X103275647Y-133123958D01*
X89956160Y-133123958D01*
X90158188Y-132922283D01*
X90384742Y-132376681D01*
X90385200Y-131851279D01*
X102643282Y-131851279D01*
X102669685Y-132441458D01*
X102844741Y-132864080D01*
X103096042Y-132944353D01*
X103960395Y-132080000D01*
X104319605Y-132080000D01*
X105183958Y-132944353D01*
X105435259Y-132864080D01*
X105636718Y-132308721D01*
X105610315Y-131718542D01*
X105435259Y-131295920D01*
X105183958Y-131215647D01*
X104319605Y-132080000D01*
X103960395Y-132080000D01*
X103096042Y-131215647D01*
X102844741Y-131295920D01*
X102643282Y-131851279D01*
X90385200Y-131851279D01*
X90385257Y-131785911D01*
X90159656Y-131239914D01*
X89956140Y-131036042D01*
X103275647Y-131036042D01*
X104140000Y-131900395D01*
X105004353Y-131036042D01*
X104924080Y-130784741D01*
X104368721Y-130583282D01*
X103778542Y-130609685D01*
X103355920Y-130784741D01*
X103275647Y-131036042D01*
X89956140Y-131036042D01*
X89742283Y-130821812D01*
X89660000Y-130787645D01*
X89660000Y-129032815D01*
X96924630Y-129032815D01*
X97248980Y-129817800D01*
X97849041Y-130418909D01*
X98633459Y-130744628D01*
X99482815Y-130745370D01*
X100267800Y-130421020D01*
X100868909Y-129820959D01*
X101194628Y-129036541D01*
X101195370Y-128187185D01*
X100871020Y-127402200D01*
X100270959Y-126801091D01*
X99486541Y-126475372D01*
X98637185Y-126474630D01*
X97852200Y-126798980D01*
X97251091Y-127399041D01*
X96925372Y-128183459D01*
X96924630Y-129032815D01*
X89660000Y-129032815D01*
X89660000Y-120672747D01*
X89740086Y-120639656D01*
X89956160Y-120423958D01*
X103275647Y-120423958D01*
X103355920Y-120675259D01*
X103911279Y-120876718D01*
X104501458Y-120850315D01*
X104924080Y-120675259D01*
X105004353Y-120423958D01*
X104140000Y-119559605D01*
X103275647Y-120423958D01*
X89956160Y-120423958D01*
X90158188Y-120222283D01*
X90384742Y-119676681D01*
X90385200Y-119151279D01*
X102643282Y-119151279D01*
X102669685Y-119741458D01*
X102844741Y-120164080D01*
X103096042Y-120244353D01*
X103960395Y-119380000D01*
X104319605Y-119380000D01*
X105183958Y-120244353D01*
X105435259Y-120164080D01*
X105613005Y-119674089D01*
X107734743Y-119674089D01*
X107960344Y-120220086D01*
X108377717Y-120638188D01*
X108460000Y-120672355D01*
X108460000Y-130787253D01*
X108379914Y-130820344D01*
X107961812Y-131237717D01*
X107735258Y-131783319D01*
X107734743Y-132374089D01*
X107960344Y-132920086D01*
X108377717Y-133338188D01*
X108923319Y-133564742D01*
X109514089Y-133565257D01*
X110060086Y-133339656D01*
X110276160Y-133123958D01*
X123595647Y-133123958D01*
X123675920Y-133375259D01*
X124231279Y-133576718D01*
X124821458Y-133550315D01*
X125244080Y-133375259D01*
X125324353Y-133123958D01*
X124460000Y-132259605D01*
X123595647Y-133123958D01*
X110276160Y-133123958D01*
X110478188Y-132922283D01*
X110704742Y-132376681D01*
X110705200Y-131851279D01*
X122963282Y-131851279D01*
X122989685Y-132441458D01*
X123164741Y-132864080D01*
X123416042Y-132944353D01*
X124280395Y-132080000D01*
X124639605Y-132080000D01*
X125503958Y-132944353D01*
X125755259Y-132864080D01*
X125933005Y-132374089D01*
X128054743Y-132374089D01*
X128280344Y-132920086D01*
X128697717Y-133338188D01*
X129243319Y-133564742D01*
X129834089Y-133565257D01*
X130380086Y-133339656D01*
X130666435Y-133053806D01*
X146441612Y-133053806D01*
X146461750Y-133803435D01*
X146709877Y-134402467D01*
X147002680Y-134531715D01*
X148156395Y-133378000D01*
X148515605Y-133378000D01*
X149669320Y-134531715D01*
X149962123Y-134402467D01*
X150230388Y-133702194D01*
X150210250Y-132952565D01*
X149962123Y-132353533D01*
X149669320Y-132224285D01*
X148515605Y-133378000D01*
X148156395Y-133378000D01*
X147002680Y-132224285D01*
X146709877Y-132353533D01*
X146441612Y-133053806D01*
X130666435Y-133053806D01*
X130798188Y-132922283D01*
X131024742Y-132376681D01*
X131025031Y-132044680D01*
X147182285Y-132044680D01*
X148336000Y-133198395D01*
X149489715Y-132044680D01*
X149360467Y-131751877D01*
X148660194Y-131483612D01*
X147910565Y-131503750D01*
X147311533Y-131751877D01*
X147182285Y-132044680D01*
X131025031Y-132044680D01*
X131025257Y-131785911D01*
X130799656Y-131239914D01*
X130382283Y-130821812D01*
X129836681Y-130595258D01*
X129245911Y-130594743D01*
X128699914Y-130820344D01*
X128281812Y-131237717D01*
X128055258Y-131783319D01*
X128054743Y-132374089D01*
X125933005Y-132374089D01*
X125956718Y-132308721D01*
X125930315Y-131718542D01*
X125755259Y-131295920D01*
X125503958Y-131215647D01*
X124639605Y-132080000D01*
X124280395Y-132080000D01*
X123416042Y-131215647D01*
X123164741Y-131295920D01*
X122963282Y-131851279D01*
X110705200Y-131851279D01*
X110705257Y-131785911D01*
X110479656Y-131239914D01*
X110276140Y-131036042D01*
X123595647Y-131036042D01*
X124460000Y-131900395D01*
X125324353Y-131036042D01*
X125244080Y-130784741D01*
X124688721Y-130583282D01*
X124098542Y-130609685D01*
X123675920Y-130784741D01*
X123595647Y-131036042D01*
X110276140Y-131036042D01*
X110062283Y-130821812D01*
X109980000Y-130787645D01*
X109980000Y-128913991D01*
X120634735Y-128913991D01*
X120867932Y-129478371D01*
X121299357Y-129910551D01*
X121863330Y-130144733D01*
X122473991Y-130145265D01*
X123038371Y-129912068D01*
X123065486Y-129885000D01*
X146777600Y-129885000D01*
X147266839Y-130375093D01*
X147959405Y-130662672D01*
X148709305Y-130663326D01*
X149402372Y-130376957D01*
X149933093Y-129847161D01*
X150220672Y-129154595D01*
X150221326Y-128404695D01*
X149934957Y-127711628D01*
X149405161Y-127180907D01*
X148712595Y-126893328D01*
X147962695Y-126892674D01*
X147269628Y-127179043D01*
X146832910Y-127615000D01*
X123345660Y-127615000D01*
X123040643Y-127309449D01*
X122476670Y-127075267D01*
X121866009Y-127074735D01*
X121301629Y-127307932D01*
X120869449Y-127739357D01*
X120635267Y-128303330D01*
X120634735Y-128913991D01*
X109980000Y-128913991D01*
X109980000Y-120672747D01*
X110060086Y-120639656D01*
X110276160Y-120423958D01*
X123595647Y-120423958D01*
X123675920Y-120675259D01*
X124231279Y-120876718D01*
X124821458Y-120850315D01*
X125244080Y-120675259D01*
X125324353Y-120423958D01*
X124460000Y-119559605D01*
X123595647Y-120423958D01*
X110276160Y-120423958D01*
X110478188Y-120222283D01*
X110704742Y-119676681D01*
X110705200Y-119151279D01*
X122963282Y-119151279D01*
X122989685Y-119741458D01*
X123164741Y-120164080D01*
X123416042Y-120244353D01*
X124280395Y-119380000D01*
X124639605Y-119380000D01*
X125503958Y-120244353D01*
X125755259Y-120164080D01*
X125933005Y-119674089D01*
X128054743Y-119674089D01*
X128280344Y-120220086D01*
X128697717Y-120638188D01*
X129243319Y-120864742D01*
X129834089Y-120865257D01*
X130380086Y-120639656D01*
X130798188Y-120222283D01*
X131024742Y-119676681D01*
X131025257Y-119085911D01*
X130799656Y-118539914D01*
X130382283Y-118121812D01*
X129836681Y-117895258D01*
X129245911Y-117894743D01*
X128699914Y-118120344D01*
X128281812Y-118537717D01*
X128055258Y-119083319D01*
X128054743Y-119674089D01*
X125933005Y-119674089D01*
X125956718Y-119608721D01*
X125930315Y-119018542D01*
X125755259Y-118595920D01*
X125503958Y-118515647D01*
X124639605Y-119380000D01*
X124280395Y-119380000D01*
X123416042Y-118515647D01*
X123164741Y-118595920D01*
X122963282Y-119151279D01*
X110705200Y-119151279D01*
X110705257Y-119085911D01*
X110479656Y-118539914D01*
X110276140Y-118336042D01*
X123595647Y-118336042D01*
X124460000Y-119200395D01*
X125324353Y-118336042D01*
X125244080Y-118084741D01*
X124688721Y-117883282D01*
X124098542Y-117909685D01*
X123675920Y-118084741D01*
X123595647Y-118336042D01*
X110276140Y-118336042D01*
X110062283Y-118121812D01*
X109516681Y-117895258D01*
X108925911Y-117894743D01*
X108379914Y-118120344D01*
X107961812Y-118537717D01*
X107735258Y-119083319D01*
X107734743Y-119674089D01*
X105613005Y-119674089D01*
X105636718Y-119608721D01*
X105610315Y-119018542D01*
X105435259Y-118595920D01*
X105183958Y-118515647D01*
X104319605Y-119380000D01*
X103960395Y-119380000D01*
X103096042Y-118515647D01*
X102844741Y-118595920D01*
X102643282Y-119151279D01*
X90385200Y-119151279D01*
X90385257Y-119085911D01*
X90159656Y-118539914D01*
X89956140Y-118336042D01*
X103275647Y-118336042D01*
X104140000Y-119200395D01*
X105004353Y-118336042D01*
X104924080Y-118084741D01*
X104368721Y-117883282D01*
X103778542Y-117909685D01*
X103355920Y-118084741D01*
X103275647Y-118336042D01*
X89956140Y-118336042D01*
X89742283Y-118121812D01*
X89196681Y-117895258D01*
X88605911Y-117894743D01*
X88059914Y-118120344D01*
X87641812Y-118537717D01*
X87415258Y-119083319D01*
X87414743Y-119674089D01*
X85293005Y-119674089D01*
X85316718Y-119608721D01*
X85290315Y-119018542D01*
X85115259Y-118595920D01*
X84863958Y-118515647D01*
X83999605Y-119380000D01*
X83640395Y-119380000D01*
X82776042Y-118515647D01*
X82524741Y-118595920D01*
X82323282Y-119151279D01*
X78867000Y-119151279D01*
X78867000Y-118336042D01*
X82955647Y-118336042D01*
X83820000Y-119200395D01*
X84684353Y-118336042D01*
X84604080Y-118084741D01*
X84048721Y-117883282D01*
X83458542Y-117909685D01*
X83035920Y-118084741D01*
X82955647Y-118336042D01*
X78867000Y-118336042D01*
X78867000Y-116967000D01*
X143484888Y-116967000D01*
X143484336Y-117599482D01*
X143484336Y-117599482D01*
G37*
X143484336Y-117599482D02*
X144066950Y-119009515D01*
X145144811Y-120089259D01*
X146553825Y-120674333D01*
X148079482Y-120675664D01*
X149489515Y-120093050D01*
X150569259Y-119015189D01*
X151154333Y-117606175D01*
X151154891Y-116967000D01*
X151690000Y-116967000D01*
X151690000Y-170053000D01*
X151155112Y-170053000D01*
X151155664Y-169420518D01*
X150573050Y-168010485D01*
X149495189Y-166930741D01*
X148086175Y-166345667D01*
X146560518Y-166344336D01*
X145150485Y-166926950D01*
X144070741Y-168004811D01*
X143485667Y-169413825D01*
X143485109Y-170053000D01*
X78867000Y-170053000D01*
X78867000Y-168683958D01*
X82701647Y-168683958D01*
X82781920Y-168935259D01*
X83337279Y-169136718D01*
X83927458Y-169110315D01*
X84350080Y-168935259D01*
X84430353Y-168683958D01*
X83566000Y-167819605D01*
X82701647Y-168683958D01*
X78867000Y-168683958D01*
X78867000Y-167411279D01*
X82069282Y-167411279D01*
X82095685Y-168001458D01*
X82270741Y-168424080D01*
X82522042Y-168504353D01*
X83386395Y-167640000D01*
X83745605Y-167640000D01*
X84609958Y-168504353D01*
X84861259Y-168424080D01*
X85062718Y-167868721D01*
X85036315Y-167278542D01*
X84861259Y-166855920D01*
X84609958Y-166775647D01*
X83745605Y-167640000D01*
X83386395Y-167640000D01*
X82522042Y-166775647D01*
X82270741Y-166855920D01*
X82069282Y-167411279D01*
X78867000Y-167411279D01*
X78867000Y-166596042D01*
X82701647Y-166596042D01*
X83566000Y-167460395D01*
X84430353Y-166596042D01*
X84350080Y-166344741D01*
X83794721Y-166143282D01*
X83204542Y-166169685D01*
X82781920Y-166344741D01*
X82701647Y-166596042D01*
X78867000Y-166596042D01*
X78867000Y-155983958D01*
X82701647Y-155983958D01*
X82781920Y-156235259D01*
X83337279Y-156436718D01*
X83927458Y-156410315D01*
X84350080Y-156235259D01*
X84430353Y-155983958D01*
X83566000Y-155119605D01*
X82701647Y-155983958D01*
X78867000Y-155983958D01*
X78867000Y-154711279D01*
X82069282Y-154711279D01*
X82095685Y-155301458D01*
X82270741Y-155724080D01*
X82522042Y-155804353D01*
X83386395Y-154940000D01*
X83745605Y-154940000D01*
X84609958Y-155804353D01*
X84861259Y-155724080D01*
X85039005Y-155234089D01*
X87160743Y-155234089D01*
X87386344Y-155780086D01*
X87803717Y-156198188D01*
X87936800Y-156253449D01*
X87936800Y-166326263D01*
X87805914Y-166380344D01*
X87387812Y-166797717D01*
X87161258Y-167343319D01*
X87160743Y-167934089D01*
X87386344Y-168480086D01*
X87803717Y-168898188D01*
X88349319Y-169124742D01*
X88940089Y-169125257D01*
X89486086Y-168899656D01*
X89702160Y-168683958D01*
X103275647Y-168683958D01*
X103355920Y-168935259D01*
X103911279Y-169136718D01*
X104501458Y-169110315D01*
X104924080Y-168935259D01*
X105004353Y-168683958D01*
X104140000Y-167819605D01*
X103275647Y-168683958D01*
X89702160Y-168683958D01*
X89904188Y-168482283D01*
X90130742Y-167936681D01*
X90131200Y-167411279D01*
X102643282Y-167411279D01*
X102669685Y-168001458D01*
X102844741Y-168424080D01*
X103096042Y-168504353D01*
X103960395Y-167640000D01*
X104319605Y-167640000D01*
X105183958Y-168504353D01*
X105435259Y-168424080D01*
X105636718Y-167868721D01*
X105610315Y-167278542D01*
X105435259Y-166855920D01*
X105183958Y-166775647D01*
X104319605Y-167640000D01*
X103960395Y-167640000D01*
X103096042Y-166775647D01*
X102844741Y-166855920D01*
X102643282Y-167411279D01*
X90131200Y-167411279D01*
X90131257Y-167345911D01*
X89905656Y-166799914D01*
X89702140Y-166596042D01*
X103275647Y-166596042D01*
X104140000Y-167460395D01*
X105004353Y-166596042D01*
X104924080Y-166344741D01*
X104368721Y-166143282D01*
X103778542Y-166169685D01*
X103355920Y-166344741D01*
X103275647Y-166596042D01*
X89702140Y-166596042D01*
X89488283Y-166381812D01*
X89456800Y-166368739D01*
X89456800Y-156211757D01*
X89486086Y-156199656D01*
X89702160Y-155983958D01*
X103275647Y-155983958D01*
X103355920Y-156235259D01*
X103911279Y-156436718D01*
X104501458Y-156410315D01*
X104924080Y-156235259D01*
X105004353Y-155983958D01*
X104140000Y-155119605D01*
X103275647Y-155983958D01*
X89702160Y-155983958D01*
X89904188Y-155782283D01*
X90130742Y-155236681D01*
X90131200Y-154711279D01*
X102643282Y-154711279D01*
X102669685Y-155301458D01*
X102844741Y-155724080D01*
X103096042Y-155804353D01*
X103960395Y-154940000D01*
X104319605Y-154940000D01*
X105183958Y-155804353D01*
X105435259Y-155724080D01*
X105613005Y-155234089D01*
X107734743Y-155234089D01*
X107960344Y-155780086D01*
X108377717Y-156198188D01*
X108460000Y-156232355D01*
X108460000Y-166347253D01*
X108379914Y-166380344D01*
X107961812Y-166797717D01*
X107735258Y-167343319D01*
X107734743Y-167934089D01*
X107960344Y-168480086D01*
X108377717Y-168898188D01*
X108923319Y-169124742D01*
X109514089Y-169125257D01*
X110060086Y-168899656D01*
X110276160Y-168683958D01*
X123595647Y-168683958D01*
X123675920Y-168935259D01*
X124231279Y-169136718D01*
X124821458Y-169110315D01*
X125244080Y-168935259D01*
X125324353Y-168683958D01*
X124460000Y-167819605D01*
X123595647Y-168683958D01*
X110276160Y-168683958D01*
X110478188Y-168482283D01*
X110704742Y-167936681D01*
X110705200Y-167411279D01*
X122963282Y-167411279D01*
X122989685Y-168001458D01*
X123164741Y-168424080D01*
X123416042Y-168504353D01*
X124280395Y-167640000D01*
X124639605Y-167640000D01*
X125503958Y-168504353D01*
X125755259Y-168424080D01*
X125956718Y-167868721D01*
X125930315Y-167278542D01*
X125755259Y-166855920D01*
X125503958Y-166775647D01*
X124639605Y-167640000D01*
X124280395Y-167640000D01*
X123416042Y-166775647D01*
X123164741Y-166855920D01*
X122963282Y-167411279D01*
X110705200Y-167411279D01*
X110705257Y-167345911D01*
X110479656Y-166799914D01*
X110276140Y-166596042D01*
X123595647Y-166596042D01*
X124460000Y-167460395D01*
X125324353Y-166596042D01*
X125244080Y-166344741D01*
X124688721Y-166143282D01*
X124098542Y-166169685D01*
X123675920Y-166344741D01*
X123595647Y-166596042D01*
X110276140Y-166596042D01*
X110062283Y-166381812D01*
X109980000Y-166347645D01*
X109980000Y-156232747D01*
X110060086Y-156199656D01*
X110276160Y-155983958D01*
X123595647Y-155983958D01*
X123675920Y-156235259D01*
X124231279Y-156436718D01*
X124821458Y-156410315D01*
X125244080Y-156235259D01*
X125324353Y-155983958D01*
X124460000Y-155119605D01*
X123595647Y-155983958D01*
X110276160Y-155983958D01*
X110478188Y-155782283D01*
X110704742Y-155236681D01*
X110705200Y-154711279D01*
X122963282Y-154711279D01*
X122989685Y-155301458D01*
X123164741Y-155724080D01*
X123416042Y-155804353D01*
X124280395Y-154940000D01*
X124639605Y-154940000D01*
X125503958Y-155804353D01*
X125755259Y-155724080D01*
X125933005Y-155234089D01*
X128054743Y-155234089D01*
X128280344Y-155780086D01*
X128697717Y-156198188D01*
X128780000Y-156232355D01*
X128780000Y-166347253D01*
X128699914Y-166380344D01*
X128281812Y-166797717D01*
X128055258Y-167343319D01*
X128054743Y-167934089D01*
X128280344Y-168480086D01*
X128697717Y-168898188D01*
X129243319Y-169124742D01*
X129834089Y-169125257D01*
X130380086Y-168899656D01*
X130798188Y-168482283D01*
X131024742Y-167936681D01*
X131025257Y-167345911D01*
X130799656Y-166799914D01*
X130382283Y-166381812D01*
X130300000Y-166347645D01*
X130300000Y-156232747D01*
X130380086Y-156199656D01*
X130798188Y-155782283D01*
X131024742Y-155236681D01*
X131025257Y-154645911D01*
X130799656Y-154099914D01*
X130382283Y-153681812D01*
X129836681Y-153455258D01*
X129245911Y-153454743D01*
X128699914Y-153680344D01*
X128281812Y-154097717D01*
X128055258Y-154643319D01*
X128054743Y-155234089D01*
X125933005Y-155234089D01*
X125956718Y-155168721D01*
X125930315Y-154578542D01*
X125755259Y-154155920D01*
X125503958Y-154075647D01*
X124639605Y-154940000D01*
X124280395Y-154940000D01*
X123416042Y-154075647D01*
X123164741Y-154155920D01*
X122963282Y-154711279D01*
X110705200Y-154711279D01*
X110705257Y-154645911D01*
X110479656Y-154099914D01*
X110276140Y-153896042D01*
X123595647Y-153896042D01*
X124460000Y-154760395D01*
X125324353Y-153896042D01*
X125244080Y-153644741D01*
X124688721Y-153443282D01*
X124098542Y-153469685D01*
X123675920Y-153644741D01*
X123595647Y-153896042D01*
X110276140Y-153896042D01*
X110062283Y-153681812D01*
X109516681Y-153455258D01*
X108925911Y-153454743D01*
X108379914Y-153680344D01*
X107961812Y-154097717D01*
X107735258Y-154643319D01*
X107734743Y-155234089D01*
X105613005Y-155234089D01*
X105636718Y-155168721D01*
X105610315Y-154578542D01*
X105435259Y-154155920D01*
X105183958Y-154075647D01*
X104319605Y-154940000D01*
X103960395Y-154940000D01*
X103096042Y-154075647D01*
X102844741Y-154155920D01*
X102643282Y-154711279D01*
X90131200Y-154711279D01*
X90131257Y-154645911D01*
X89905656Y-154099914D01*
X89488283Y-153681812D01*
X88942681Y-153455258D01*
X88351911Y-153454743D01*
X87805914Y-153680344D01*
X87387812Y-154097717D01*
X87161258Y-154643319D01*
X87160743Y-155234089D01*
X85039005Y-155234089D01*
X85062718Y-155168721D01*
X85036315Y-154578542D01*
X84861259Y-154155920D01*
X84609958Y-154075647D01*
X83745605Y-154940000D01*
X83386395Y-154940000D01*
X82522042Y-154075647D01*
X82270741Y-154155920D01*
X82069282Y-154711279D01*
X78867000Y-154711279D01*
X78867000Y-153896042D01*
X82701647Y-153896042D01*
X83566000Y-154760395D01*
X84430353Y-153896042D01*
X84350080Y-153644741D01*
X83794721Y-153443282D01*
X83204542Y-153469685D01*
X82781920Y-153644741D01*
X82701647Y-153896042D01*
X78867000Y-153896042D01*
X78867000Y-152822815D01*
X96924630Y-152822815D01*
X97248980Y-153607800D01*
X97849041Y-154208909D01*
X98633459Y-154534628D01*
X99482815Y-154535370D01*
X100267800Y-154211020D01*
X100583328Y-153896042D01*
X103275647Y-153896042D01*
X104140000Y-154760395D01*
X105004353Y-153896042D01*
X104924080Y-153644741D01*
X104368721Y-153443282D01*
X103778542Y-153469685D01*
X103355920Y-153644741D01*
X103275647Y-153896042D01*
X100583328Y-153896042D01*
X100868909Y-153610959D01*
X101194628Y-152826541D01*
X101195370Y-151977185D01*
X100871020Y-151192200D01*
X100583281Y-150903958D01*
X103275647Y-150903958D01*
X103355920Y-151155259D01*
X103911279Y-151356718D01*
X104501458Y-151330315D01*
X104924080Y-151155259D01*
X105004353Y-150903958D01*
X104140000Y-150039605D01*
X103275647Y-150903958D01*
X100583281Y-150903958D01*
X100270959Y-150591091D01*
X99486541Y-150265372D01*
X98637185Y-150264630D01*
X97852200Y-150588980D01*
X97251091Y-151189041D01*
X96925372Y-151973459D01*
X96924630Y-152822815D01*
X78867000Y-152822815D01*
X78867000Y-150903958D01*
X82955647Y-150903958D01*
X83035920Y-151155259D01*
X83591279Y-151356718D01*
X84181458Y-151330315D01*
X84604080Y-151155259D01*
X84684353Y-150903958D01*
X83820000Y-150039605D01*
X82955647Y-150903958D01*
X78867000Y-150903958D01*
X78867000Y-149631279D01*
X82323282Y-149631279D01*
X82349685Y-150221458D01*
X82524741Y-150644080D01*
X82776042Y-150724353D01*
X83640395Y-149860000D01*
X83999605Y-149860000D01*
X84863958Y-150724353D01*
X85115259Y-150644080D01*
X85316718Y-150088721D01*
X85290315Y-149498542D01*
X85115259Y-149075920D01*
X84863958Y-148995647D01*
X83999605Y-149860000D01*
X83640395Y-149860000D01*
X82776042Y-148995647D01*
X82524741Y-149075920D01*
X82323282Y-149631279D01*
X78867000Y-149631279D01*
X78867000Y-148816042D01*
X82955647Y-148816042D01*
X83820000Y-149680395D01*
X84684353Y-148816042D01*
X84604080Y-148564741D01*
X84048721Y-148363282D01*
X83458542Y-148389685D01*
X83035920Y-148564741D01*
X82955647Y-148816042D01*
X78867000Y-148816042D01*
X78867000Y-138203958D01*
X82955647Y-138203958D01*
X83035920Y-138455259D01*
X83591279Y-138656718D01*
X84181458Y-138630315D01*
X84604080Y-138455259D01*
X84684353Y-138203958D01*
X83820000Y-137339605D01*
X82955647Y-138203958D01*
X78867000Y-138203958D01*
X78867000Y-136931279D01*
X82323282Y-136931279D01*
X82349685Y-137521458D01*
X82524741Y-137944080D01*
X82776042Y-138024353D01*
X83640395Y-137160000D01*
X83999605Y-137160000D01*
X84863958Y-138024353D01*
X85115259Y-137944080D01*
X85293005Y-137454089D01*
X87414743Y-137454089D01*
X87640344Y-138000086D01*
X88057717Y-138418188D01*
X88140000Y-138452355D01*
X88140000Y-148567253D01*
X88059914Y-148600344D01*
X87641812Y-149017717D01*
X87415258Y-149563319D01*
X87414743Y-150154089D01*
X87640344Y-150700086D01*
X88057717Y-151118188D01*
X88603319Y-151344742D01*
X89194089Y-151345257D01*
X89740086Y-151119656D01*
X90158188Y-150702283D01*
X90384742Y-150156681D01*
X90385200Y-149631279D01*
X102643282Y-149631279D01*
X102669685Y-150221458D01*
X102844741Y-150644080D01*
X103096042Y-150724353D01*
X103960395Y-149860000D01*
X104319605Y-149860000D01*
X105183958Y-150724353D01*
X105435259Y-150644080D01*
X105636718Y-150088721D01*
X105610315Y-149498542D01*
X105435259Y-149075920D01*
X105183958Y-148995647D01*
X104319605Y-149860000D01*
X103960395Y-149860000D01*
X103096042Y-148995647D01*
X102844741Y-149075920D01*
X102643282Y-149631279D01*
X90385200Y-149631279D01*
X90385257Y-149565911D01*
X90159656Y-149019914D01*
X89956140Y-148816042D01*
X103275647Y-148816042D01*
X104140000Y-149680395D01*
X105004353Y-148816042D01*
X104924080Y-148564741D01*
X104368721Y-148363282D01*
X103778542Y-148389685D01*
X103355920Y-148564741D01*
X103275647Y-148816042D01*
X89956140Y-148816042D01*
X89742283Y-148601812D01*
X89660000Y-148567645D01*
X89660000Y-138452747D01*
X89740086Y-138419656D01*
X89956160Y-138203958D01*
X103275647Y-138203958D01*
X103355920Y-138455259D01*
X103911279Y-138656718D01*
X104501458Y-138630315D01*
X104924080Y-138455259D01*
X105004353Y-138203958D01*
X104140000Y-137339605D01*
X103275647Y-138203958D01*
X89956160Y-138203958D01*
X90158188Y-138002283D01*
X90384742Y-137456681D01*
X90385200Y-136931279D01*
X102643282Y-136931279D01*
X102669685Y-137521458D01*
X102844741Y-137944080D01*
X103096042Y-138024353D01*
X103960395Y-137160000D01*
X104319605Y-137160000D01*
X105183958Y-138024353D01*
X105435259Y-137944080D01*
X105613005Y-137454089D01*
X107734743Y-137454089D01*
X107960344Y-138000086D01*
X108377717Y-138418188D01*
X108460000Y-138452355D01*
X108460000Y-148567253D01*
X108379914Y-148600344D01*
X107961812Y-149017717D01*
X107735258Y-149563319D01*
X107734743Y-150154089D01*
X107960344Y-150700086D01*
X108377717Y-151118188D01*
X108923319Y-151344742D01*
X109514089Y-151345257D01*
X110060086Y-151119656D01*
X110276160Y-150903958D01*
X123595647Y-150903958D01*
X123675920Y-151155259D01*
X124231279Y-151356718D01*
X124821458Y-151330315D01*
X125244080Y-151155259D01*
X125324353Y-150903958D01*
X124460000Y-150039605D01*
X123595647Y-150903958D01*
X110276160Y-150903958D01*
X110478188Y-150702283D01*
X110704742Y-150156681D01*
X110705200Y-149631279D01*
X122963282Y-149631279D01*
X122989685Y-150221458D01*
X123164741Y-150644080D01*
X123416042Y-150724353D01*
X124280395Y-149860000D01*
X124639605Y-149860000D01*
X125503958Y-150724353D01*
X125755259Y-150644080D01*
X125933005Y-150154089D01*
X128054743Y-150154089D01*
X128280344Y-150700086D01*
X128697717Y-151118188D01*
X129243319Y-151344742D01*
X129834089Y-151345257D01*
X130380086Y-151119656D01*
X130798188Y-150702283D01*
X131024742Y-150156681D01*
X131025257Y-149565911D01*
X130799656Y-149019914D01*
X130382283Y-148601812D01*
X129836681Y-148375258D01*
X129245911Y-148374743D01*
X128699914Y-148600344D01*
X128281812Y-149017717D01*
X128055258Y-149563319D01*
X128054743Y-150154089D01*
X125933005Y-150154089D01*
X125956718Y-150088721D01*
X125930315Y-149498542D01*
X125755259Y-149075920D01*
X125503958Y-148995647D01*
X124639605Y-149860000D01*
X124280395Y-149860000D01*
X123416042Y-148995647D01*
X123164741Y-149075920D01*
X122963282Y-149631279D01*
X110705200Y-149631279D01*
X110705257Y-149565911D01*
X110479656Y-149019914D01*
X110276140Y-148816042D01*
X123595647Y-148816042D01*
X124460000Y-149680395D01*
X125324353Y-148816042D01*
X125244080Y-148564741D01*
X124688721Y-148363282D01*
X124098542Y-148389685D01*
X123675920Y-148564741D01*
X123595647Y-148816042D01*
X110276140Y-148816042D01*
X110062283Y-148601812D01*
X109980000Y-148567645D01*
X109980000Y-140813991D01*
X120634735Y-140813991D01*
X120867932Y-141378371D01*
X121299357Y-141810551D01*
X121863330Y-142044733D01*
X122473991Y-142045265D01*
X123038371Y-141812068D01*
X123255819Y-141595000D01*
X128410002Y-141595000D01*
X128825214Y-141512409D01*
X129177213Y-141277211D01*
X133509425Y-136944999D01*
X136797560Y-136944999D01*
X136797560Y-137810000D01*
X136841838Y-138045317D01*
X136980910Y-138261441D01*
X137193110Y-138406431D01*
X137304523Y-138428993D01*
X137209683Y-138446838D01*
X136993559Y-138585910D01*
X136848569Y-138798110D01*
X136797560Y-139050000D01*
X136797560Y-139358114D01*
X136733162Y-139513201D01*
X136732838Y-139885167D01*
X136797560Y-140041807D01*
X136797560Y-140350000D01*
X136841838Y-140585317D01*
X136980910Y-140801441D01*
X137193110Y-140946431D01*
X137304523Y-140968993D01*
X137209683Y-140986838D01*
X136993559Y-141125910D01*
X136848569Y-141338110D01*
X136797560Y-141590000D01*
X136797560Y-141898114D01*
X136733162Y-142053201D01*
X136732838Y-142425167D01*
X136797560Y-142581807D01*
X136797560Y-142890000D01*
X136841838Y-143125317D01*
X136980910Y-143341441D01*
X137193110Y-143486431D01*
X137306931Y-143509480D01*
X137214683Y-143526838D01*
X136998559Y-143665910D01*
X136853569Y-143878110D01*
X136802560Y-144130000D01*
X136802560Y-144426073D01*
X136733162Y-144593201D01*
X136732838Y-144965167D01*
X136802560Y-145133908D01*
X136802560Y-145430000D01*
X136846838Y-145665317D01*
X136985910Y-145881441D01*
X137198110Y-146026431D01*
X137309523Y-146048993D01*
X137214683Y-146066838D01*
X136998559Y-146205910D01*
X136853569Y-146418110D01*
X136802560Y-146670000D01*
X136802560Y-147970000D01*
X136846838Y-148205317D01*
X136985910Y-148421441D01*
X137198110Y-148566431D01*
X137309523Y-148588993D01*
X137214683Y-148606838D01*
X136998559Y-148745910D01*
X136853569Y-148958110D01*
X136802560Y-149210000D01*
X136802560Y-150510000D01*
X136846838Y-150745317D01*
X136985910Y-150961441D01*
X137198110Y-151106431D01*
X137309523Y-151128993D01*
X137214683Y-151146838D01*
X136998559Y-151285910D01*
X136853569Y-151498110D01*
X136802560Y-151750000D01*
X136802560Y-153050000D01*
X136846838Y-153285317D01*
X136985910Y-153501441D01*
X137198110Y-153646431D01*
X137309523Y-153668993D01*
X137214683Y-153686838D01*
X136998559Y-153825910D01*
X136853569Y-154038110D01*
X136802560Y-154290000D01*
X136802560Y-155590000D01*
X136846838Y-155825317D01*
X136985910Y-156041441D01*
X137198110Y-156186431D01*
X137309523Y-156208993D01*
X137214683Y-156226838D01*
X136998559Y-156365910D01*
X136853569Y-156578110D01*
X136802560Y-156830000D01*
X136802560Y-157126073D01*
X136733162Y-157293201D01*
X136732838Y-157665167D01*
X136802560Y-157833908D01*
X136802560Y-158130000D01*
X136846838Y-158365317D01*
X136985910Y-158581441D01*
X137198110Y-158726431D01*
X137450000Y-158777440D01*
X138150000Y-158777440D01*
X138385317Y-158733162D01*
X138601441Y-158594090D01*
X138746431Y-158381890D01*
X138749081Y-158368803D01*
X138885910Y-158581441D01*
X139098110Y-158726431D01*
X139350000Y-158777440D01*
X139463018Y-158777440D01*
X141472789Y-160787211D01*
X141824788Y-161022409D01*
X142240000Y-161105000D01*
X144596778Y-161105000D01*
X144596838Y-161105317D01*
X144735910Y-161321441D01*
X144948110Y-161466431D01*
X145200000Y-161517440D01*
X146900000Y-161517440D01*
X147135317Y-161473162D01*
X147351441Y-161334090D01*
X147496431Y-161121890D01*
X147519555Y-161007699D01*
X147708642Y-161215183D01*
X148233108Y-161461486D01*
X148463000Y-161340819D01*
X148463000Y-160147000D01*
X148717000Y-160147000D01*
X148717000Y-161340819D01*
X148946892Y-161461486D01*
X149471358Y-161215183D01*
X149861645Y-160786924D01*
X150031476Y-160376890D01*
X149910155Y-160147000D01*
X148717000Y-160147000D01*
X148463000Y-160147000D01*
X148443000Y-160147000D01*
X148443000Y-159893000D01*
X148463000Y-159893000D01*
X148463000Y-159873000D01*
X148717000Y-159873000D01*
X148717000Y-159893000D01*
X149910155Y-159893000D01*
X150031476Y-159663110D01*
X149861645Y-159253076D01*
X149471358Y-158824817D01*
X149328447Y-158757702D01*
X149669147Y-158530054D01*
X149991054Y-158048285D01*
X150104093Y-157480000D01*
X149991054Y-156911715D01*
X149669147Y-156429946D01*
X149339974Y-156210000D01*
X149669147Y-155990054D01*
X149991054Y-155508285D01*
X150104093Y-154940000D01*
X149991054Y-154371715D01*
X149669147Y-153889946D01*
X149339974Y-153670000D01*
X149669147Y-153450054D01*
X149991054Y-152968285D01*
X150104093Y-152400000D01*
X149991054Y-151831715D01*
X149669147Y-151349946D01*
X149339974Y-151130000D01*
X149669147Y-150910054D01*
X149991054Y-150428285D01*
X150104093Y-149860000D01*
X149991054Y-149291715D01*
X149669147Y-148809946D01*
X149339974Y-148590000D01*
X149669147Y-148370054D01*
X149991054Y-147888285D01*
X150104093Y-147320000D01*
X149991054Y-146751715D01*
X149669147Y-146269946D01*
X149187378Y-145948039D01*
X148619093Y-145835000D01*
X148560907Y-145835000D01*
X147992622Y-145948039D01*
X147510853Y-146269946D01*
X147320000Y-146555578D01*
X147129147Y-146269946D01*
X146647378Y-145948039D01*
X146079093Y-145835000D01*
X146020907Y-145835000D01*
X145452622Y-145948039D01*
X144970853Y-146269946D01*
X144648946Y-146751715D01*
X144535907Y-147320000D01*
X144648946Y-147888285D01*
X144970853Y-148370054D01*
X145300026Y-148590000D01*
X144970853Y-148809946D01*
X144648946Y-149291715D01*
X144535907Y-149860000D01*
X144648946Y-150428285D01*
X144970853Y-150910054D01*
X145300026Y-151130000D01*
X144970853Y-151349946D01*
X144648946Y-151831715D01*
X144535907Y-152400000D01*
X144648946Y-152968285D01*
X144970853Y-153450054D01*
X145300026Y-153670000D01*
X144970853Y-153889946D01*
X144648946Y-154371715D01*
X144535907Y-154940000D01*
X144648946Y-155508285D01*
X144970853Y-155990054D01*
X145300026Y-156210000D01*
X144970853Y-156429946D01*
X144648946Y-156911715D01*
X144535907Y-157480000D01*
X144648946Y-158048285D01*
X144970853Y-158530054D01*
X145012452Y-158557850D01*
X144964683Y-158566838D01*
X144748559Y-158705910D01*
X144603569Y-158918110D01*
X144600149Y-158935000D01*
X142689422Y-158935000D01*
X140785000Y-157030578D01*
X140785000Y-142245000D01*
X140780000Y-142219863D01*
X140780000Y-136890003D01*
X140780001Y-136889998D01*
X140697410Y-136474787D01*
X140681269Y-136450630D01*
X140648162Y-136274683D01*
X140509090Y-136058559D01*
X140296890Y-135913569D01*
X140241846Y-135902422D01*
X139432212Y-135092788D01*
X139299515Y-135004123D01*
X139080213Y-134857590D01*
X138665001Y-134774999D01*
X133060003Y-134774999D01*
X132644791Y-134857590D01*
X132425489Y-135004123D01*
X132292792Y-135092788D01*
X130877432Y-136508148D01*
X130799656Y-136319914D01*
X130382283Y-135901812D01*
X129836681Y-135675258D01*
X129245911Y-135674743D01*
X128699914Y-135900344D01*
X128281812Y-136317717D01*
X128055258Y-136863319D01*
X128054743Y-137454089D01*
X128280344Y-138000086D01*
X128697717Y-138418188D01*
X128888268Y-138497312D01*
X127960580Y-139425000D01*
X123255817Y-139425000D01*
X123040643Y-139209449D01*
X122476670Y-138975267D01*
X121866009Y-138974735D01*
X121301629Y-139207932D01*
X120869449Y-139639357D01*
X120635267Y-140203330D01*
X120634735Y-140813991D01*
X109980000Y-140813991D01*
X109980000Y-138452747D01*
X110060086Y-138419656D01*
X110276160Y-138203958D01*
X123595647Y-138203958D01*
X123675920Y-138455259D01*
X124231279Y-138656718D01*
X124821458Y-138630315D01*
X125244080Y-138455259D01*
X125324353Y-138203958D01*
X124460000Y-137339605D01*
X123595647Y-138203958D01*
X110276160Y-138203958D01*
X110478188Y-138002283D01*
X110704742Y-137456681D01*
X110705200Y-136931279D01*
X122963282Y-136931279D01*
X122989685Y-137521458D01*
X123164741Y-137944080D01*
X123416042Y-138024353D01*
X124280395Y-137160000D01*
X124639605Y-137160000D01*
X125503958Y-138024353D01*
X125755259Y-137944080D01*
X125956718Y-137388721D01*
X125930315Y-136798542D01*
X125755259Y-136375920D01*
X125503958Y-136295647D01*
X124639605Y-137160000D01*
X124280395Y-137160000D01*
X123416042Y-136295647D01*
X123164741Y-136375920D01*
X122963282Y-136931279D01*
X110705200Y-136931279D01*
X110705257Y-136865911D01*
X110479656Y-136319914D01*
X110276140Y-136116042D01*
X123595647Y-136116042D01*
X124460000Y-136980395D01*
X125324353Y-136116042D01*
X125244080Y-135864741D01*
X124688721Y-135663282D01*
X124098542Y-135689685D01*
X123675920Y-135864741D01*
X123595647Y-136116042D01*
X110276140Y-136116042D01*
X110062283Y-135901812D01*
X109516681Y-135675258D01*
X108925911Y-135674743D01*
X108379914Y-135900344D01*
X107961812Y-136317717D01*
X107735258Y-136863319D01*
X107734743Y-137454089D01*
X105613005Y-137454089D01*
X105636718Y-137388721D01*
X105610315Y-136798542D01*
X105435259Y-136375920D01*
X105183958Y-136295647D01*
X104319605Y-137160000D01*
X103960395Y-137160000D01*
X103096042Y-136295647D01*
X102844741Y-136375920D01*
X102643282Y-136931279D01*
X90385200Y-136931279D01*
X90385257Y-136865911D01*
X90159656Y-136319914D01*
X89956140Y-136116042D01*
X103275647Y-136116042D01*
X104140000Y-136980395D01*
X105004353Y-136116042D01*
X104924080Y-135864741D01*
X104368721Y-135663282D01*
X103778542Y-135689685D01*
X103355920Y-135864741D01*
X103275647Y-136116042D01*
X89956140Y-136116042D01*
X89742283Y-135901812D01*
X89196681Y-135675258D01*
X88605911Y-135674743D01*
X88059914Y-135900344D01*
X87641812Y-136317717D01*
X87415258Y-136863319D01*
X87414743Y-137454089D01*
X85293005Y-137454089D01*
X85316718Y-137388721D01*
X85290315Y-136798542D01*
X85115259Y-136375920D01*
X84863958Y-136295647D01*
X83999605Y-137160000D01*
X83640395Y-137160000D01*
X82776042Y-136295647D01*
X82524741Y-136375920D01*
X82323282Y-136931279D01*
X78867000Y-136931279D01*
X78867000Y-136116042D01*
X82955647Y-136116042D01*
X83820000Y-136980395D01*
X84684353Y-136116042D01*
X84604080Y-135864741D01*
X84048721Y-135663282D01*
X83458542Y-135689685D01*
X83035920Y-135864741D01*
X82955647Y-136116042D01*
X78867000Y-136116042D01*
X78867000Y-134711320D01*
X147182285Y-134711320D01*
X147311533Y-135004123D01*
X148011806Y-135272388D01*
X148761435Y-135252250D01*
X149360467Y-135004123D01*
X149489715Y-134711320D01*
X148336000Y-133557605D01*
X147182285Y-134711320D01*
X78867000Y-134711320D01*
X78867000Y-133123958D01*
X82955647Y-133123958D01*
X83035920Y-133375259D01*
X83591279Y-133576718D01*
X84181458Y-133550315D01*
X84604080Y-133375259D01*
X84684353Y-133123958D01*
X83820000Y-132259605D01*
X82955647Y-133123958D01*
X78867000Y-133123958D01*
X78867000Y-131851279D01*
X82323282Y-131851279D01*
X82349685Y-132441458D01*
X82524741Y-132864080D01*
X82776042Y-132944353D01*
X83640395Y-132080000D01*
X83999605Y-132080000D01*
X84863958Y-132944353D01*
X85115259Y-132864080D01*
X85316718Y-132308721D01*
X85290315Y-131718542D01*
X85115259Y-131295920D01*
X84863958Y-131215647D01*
X83999605Y-132080000D01*
X83640395Y-132080000D01*
X82776042Y-131215647D01*
X82524741Y-131295920D01*
X82323282Y-131851279D01*
X78867000Y-131851279D01*
X78867000Y-131036042D01*
X82955647Y-131036042D01*
X83820000Y-131900395D01*
X84684353Y-131036042D01*
X84604080Y-130784741D01*
X84048721Y-130583282D01*
X83458542Y-130609685D01*
X83035920Y-130784741D01*
X82955647Y-131036042D01*
X78867000Y-131036042D01*
X78867000Y-120423958D01*
X82955647Y-120423958D01*
X83035920Y-120675259D01*
X83591279Y-120876718D01*
X84181458Y-120850315D01*
X84604080Y-120675259D01*
X84684353Y-120423958D01*
X83820000Y-119559605D01*
X82955647Y-120423958D01*
X78867000Y-120423958D01*
X78867000Y-119151279D01*
X82323282Y-119151279D01*
X82349685Y-119741458D01*
X82524741Y-120164080D01*
X82776042Y-120244353D01*
X83640395Y-119380000D01*
X83999605Y-119380000D01*
X84863958Y-120244353D01*
X85115259Y-120164080D01*
X85293005Y-119674089D01*
X87414743Y-119674089D01*
X87640344Y-120220086D01*
X88057717Y-120638188D01*
X88140000Y-120672355D01*
X88140000Y-130787253D01*
X88059914Y-130820344D01*
X87641812Y-131237717D01*
X87415258Y-131783319D01*
X87414743Y-132374089D01*
X87640344Y-132920086D01*
X88057717Y-133338188D01*
X88603319Y-133564742D01*
X89194089Y-133565257D01*
X89740086Y-133339656D01*
X89956160Y-133123958D01*
X103275647Y-133123958D01*
X103355920Y-133375259D01*
X103911279Y-133576718D01*
X104501458Y-133550315D01*
X104924080Y-133375259D01*
X105004353Y-133123958D01*
X104140000Y-132259605D01*
X103275647Y-133123958D01*
X89956160Y-133123958D01*
X90158188Y-132922283D01*
X90384742Y-132376681D01*
X90385200Y-131851279D01*
X102643282Y-131851279D01*
X102669685Y-132441458D01*
X102844741Y-132864080D01*
X103096042Y-132944353D01*
X103960395Y-132080000D01*
X104319605Y-132080000D01*
X105183958Y-132944353D01*
X105435259Y-132864080D01*
X105636718Y-132308721D01*
X105610315Y-131718542D01*
X105435259Y-131295920D01*
X105183958Y-131215647D01*
X104319605Y-132080000D01*
X103960395Y-132080000D01*
X103096042Y-131215647D01*
X102844741Y-131295920D01*
X102643282Y-131851279D01*
X90385200Y-131851279D01*
X90385257Y-131785911D01*
X90159656Y-131239914D01*
X89956140Y-131036042D01*
X103275647Y-131036042D01*
X104140000Y-131900395D01*
X105004353Y-131036042D01*
X104924080Y-130784741D01*
X104368721Y-130583282D01*
X103778542Y-130609685D01*
X103355920Y-130784741D01*
X103275647Y-131036042D01*
X89956140Y-131036042D01*
X89742283Y-130821812D01*
X89660000Y-130787645D01*
X89660000Y-129032815D01*
X96924630Y-129032815D01*
X97248980Y-129817800D01*
X97849041Y-130418909D01*
X98633459Y-130744628D01*
X99482815Y-130745370D01*
X100267800Y-130421020D01*
X100868909Y-129820959D01*
X101194628Y-129036541D01*
X101195370Y-128187185D01*
X100871020Y-127402200D01*
X100270959Y-126801091D01*
X99486541Y-126475372D01*
X98637185Y-126474630D01*
X97852200Y-126798980D01*
X97251091Y-127399041D01*
X96925372Y-128183459D01*
X96924630Y-129032815D01*
X89660000Y-129032815D01*
X89660000Y-120672747D01*
X89740086Y-120639656D01*
X89956160Y-120423958D01*
X103275647Y-120423958D01*
X103355920Y-120675259D01*
X103911279Y-120876718D01*
X104501458Y-120850315D01*
X104924080Y-120675259D01*
X105004353Y-120423958D01*
X104140000Y-119559605D01*
X103275647Y-120423958D01*
X89956160Y-120423958D01*
X90158188Y-120222283D01*
X90384742Y-119676681D01*
X90385200Y-119151279D01*
X102643282Y-119151279D01*
X102669685Y-119741458D01*
X102844741Y-120164080D01*
X103096042Y-120244353D01*
X103960395Y-119380000D01*
X104319605Y-119380000D01*
X105183958Y-120244353D01*
X105435259Y-120164080D01*
X105613005Y-119674089D01*
X107734743Y-119674089D01*
X107960344Y-120220086D01*
X108377717Y-120638188D01*
X108460000Y-120672355D01*
X108460000Y-130787253D01*
X108379914Y-130820344D01*
X107961812Y-131237717D01*
X107735258Y-131783319D01*
X107734743Y-132374089D01*
X107960344Y-132920086D01*
X108377717Y-133338188D01*
X108923319Y-133564742D01*
X109514089Y-133565257D01*
X110060086Y-133339656D01*
X110276160Y-133123958D01*
X123595647Y-133123958D01*
X123675920Y-133375259D01*
X124231279Y-133576718D01*
X124821458Y-133550315D01*
X125244080Y-133375259D01*
X125324353Y-133123958D01*
X124460000Y-132259605D01*
X123595647Y-133123958D01*
X110276160Y-133123958D01*
X110478188Y-132922283D01*
X110704742Y-132376681D01*
X110705200Y-131851279D01*
X122963282Y-131851279D01*
X122989685Y-132441458D01*
X123164741Y-132864080D01*
X123416042Y-132944353D01*
X124280395Y-132080000D01*
X124639605Y-132080000D01*
X125503958Y-132944353D01*
X125755259Y-132864080D01*
X125933005Y-132374089D01*
X128054743Y-132374089D01*
X128280344Y-132920086D01*
X128697717Y-133338188D01*
X129243319Y-133564742D01*
X129834089Y-133565257D01*
X130380086Y-133339656D01*
X130666435Y-133053806D01*
X146441612Y-133053806D01*
X146461750Y-133803435D01*
X146709877Y-134402467D01*
X147002680Y-134531715D01*
X148156395Y-133378000D01*
X148515605Y-133378000D01*
X149669320Y-134531715D01*
X149962123Y-134402467D01*
X150230388Y-133702194D01*
X150210250Y-132952565D01*
X149962123Y-132353533D01*
X149669320Y-132224285D01*
X148515605Y-133378000D01*
X148156395Y-133378000D01*
X147002680Y-132224285D01*
X146709877Y-132353533D01*
X146441612Y-133053806D01*
X130666435Y-133053806D01*
X130798188Y-132922283D01*
X131024742Y-132376681D01*
X131025031Y-132044680D01*
X147182285Y-132044680D01*
X148336000Y-133198395D01*
X149489715Y-132044680D01*
X149360467Y-131751877D01*
X148660194Y-131483612D01*
X147910565Y-131503750D01*
X147311533Y-131751877D01*
X147182285Y-132044680D01*
X131025031Y-132044680D01*
X131025257Y-131785911D01*
X130799656Y-131239914D01*
X130382283Y-130821812D01*
X129836681Y-130595258D01*
X129245911Y-130594743D01*
X128699914Y-130820344D01*
X128281812Y-131237717D01*
X128055258Y-131783319D01*
X128054743Y-132374089D01*
X125933005Y-132374089D01*
X125956718Y-132308721D01*
X125930315Y-131718542D01*
X125755259Y-131295920D01*
X125503958Y-131215647D01*
X124639605Y-132080000D01*
X124280395Y-132080000D01*
X123416042Y-131215647D01*
X123164741Y-131295920D01*
X122963282Y-131851279D01*
X110705200Y-131851279D01*
X110705257Y-131785911D01*
X110479656Y-131239914D01*
X110276140Y-131036042D01*
X123595647Y-131036042D01*
X124460000Y-131900395D01*
X125324353Y-131036042D01*
X125244080Y-130784741D01*
X124688721Y-130583282D01*
X124098542Y-130609685D01*
X123675920Y-130784741D01*
X123595647Y-131036042D01*
X110276140Y-131036042D01*
X110062283Y-130821812D01*
X109980000Y-130787645D01*
X109980000Y-128913991D01*
X120634735Y-128913991D01*
X120867932Y-129478371D01*
X121299357Y-129910551D01*
X121863330Y-130144733D01*
X122473991Y-130145265D01*
X123038371Y-129912068D01*
X123065486Y-129885000D01*
X146777600Y-129885000D01*
X147266839Y-130375093D01*
X147959405Y-130662672D01*
X148709305Y-130663326D01*
X149402372Y-130376957D01*
X149933093Y-129847161D01*
X150220672Y-129154595D01*
X150221326Y-128404695D01*
X149934957Y-127711628D01*
X149405161Y-127180907D01*
X148712595Y-126893328D01*
X147962695Y-126892674D01*
X147269628Y-127179043D01*
X146832910Y-127615000D01*
X123345660Y-127615000D01*
X123040643Y-127309449D01*
X122476670Y-127075267D01*
X121866009Y-127074735D01*
X121301629Y-127307932D01*
X120869449Y-127739357D01*
X120635267Y-128303330D01*
X120634735Y-128913991D01*
X109980000Y-128913991D01*
X109980000Y-120672747D01*
X110060086Y-120639656D01*
X110276160Y-120423958D01*
X123595647Y-120423958D01*
X123675920Y-120675259D01*
X124231279Y-120876718D01*
X124821458Y-120850315D01*
X125244080Y-120675259D01*
X125324353Y-120423958D01*
X124460000Y-119559605D01*
X123595647Y-120423958D01*
X110276160Y-120423958D01*
X110478188Y-120222283D01*
X110704742Y-119676681D01*
X110705200Y-119151279D01*
X122963282Y-119151279D01*
X122989685Y-119741458D01*
X123164741Y-120164080D01*
X123416042Y-120244353D01*
X124280395Y-119380000D01*
X124639605Y-119380000D01*
X125503958Y-120244353D01*
X125755259Y-120164080D01*
X125933005Y-119674089D01*
X128054743Y-119674089D01*
X128280344Y-120220086D01*
X128697717Y-120638188D01*
X129243319Y-120864742D01*
X129834089Y-120865257D01*
X130380086Y-120639656D01*
X130798188Y-120222283D01*
X131024742Y-119676681D01*
X131025257Y-119085911D01*
X130799656Y-118539914D01*
X130382283Y-118121812D01*
X129836681Y-117895258D01*
X129245911Y-117894743D01*
X128699914Y-118120344D01*
X128281812Y-118537717D01*
X128055258Y-119083319D01*
X128054743Y-119674089D01*
X125933005Y-119674089D01*
X125956718Y-119608721D01*
X125930315Y-119018542D01*
X125755259Y-118595920D01*
X125503958Y-118515647D01*
X124639605Y-119380000D01*
X124280395Y-119380000D01*
X123416042Y-118515647D01*
X123164741Y-118595920D01*
X122963282Y-119151279D01*
X110705200Y-119151279D01*
X110705257Y-119085911D01*
X110479656Y-118539914D01*
X110276140Y-118336042D01*
X123595647Y-118336042D01*
X124460000Y-119200395D01*
X125324353Y-118336042D01*
X125244080Y-118084741D01*
X124688721Y-117883282D01*
X124098542Y-117909685D01*
X123675920Y-118084741D01*
X123595647Y-118336042D01*
X110276140Y-118336042D01*
X110062283Y-118121812D01*
X109516681Y-117895258D01*
X108925911Y-117894743D01*
X108379914Y-118120344D01*
X107961812Y-118537717D01*
X107735258Y-119083319D01*
X107734743Y-119674089D01*
X105613005Y-119674089D01*
X105636718Y-119608721D01*
X105610315Y-119018542D01*
X105435259Y-118595920D01*
X105183958Y-118515647D01*
X104319605Y-119380000D01*
X103960395Y-119380000D01*
X103096042Y-118515647D01*
X102844741Y-118595920D01*
X102643282Y-119151279D01*
X90385200Y-119151279D01*
X90385257Y-119085911D01*
X90159656Y-118539914D01*
X89956140Y-118336042D01*
X103275647Y-118336042D01*
X104140000Y-119200395D01*
X105004353Y-118336042D01*
X104924080Y-118084741D01*
X104368721Y-117883282D01*
X103778542Y-117909685D01*
X103355920Y-118084741D01*
X103275647Y-118336042D01*
X89956140Y-118336042D01*
X89742283Y-118121812D01*
X89196681Y-117895258D01*
X88605911Y-117894743D01*
X88059914Y-118120344D01*
X87641812Y-118537717D01*
X87415258Y-119083319D01*
X87414743Y-119674089D01*
X85293005Y-119674089D01*
X85316718Y-119608721D01*
X85290315Y-119018542D01*
X85115259Y-118595920D01*
X84863958Y-118515647D01*
X83999605Y-119380000D01*
X83640395Y-119380000D01*
X82776042Y-118515647D01*
X82524741Y-118595920D01*
X82323282Y-119151279D01*
X78867000Y-119151279D01*
X78867000Y-118336042D01*
X82955647Y-118336042D01*
X83820000Y-119200395D01*
X84684353Y-118336042D01*
X84604080Y-118084741D01*
X84048721Y-117883282D01*
X83458542Y-117909685D01*
X83035920Y-118084741D01*
X82955647Y-118336042D01*
X78867000Y-118336042D01*
X78867000Y-116967000D01*
X143484888Y-116967000D01*
X143484336Y-117599482D01*
M02*
