G04 #@! TF.FileFunction,Soldermask,Bot*
%FSLAX46Y46*%
G04 Gerber Fmt 4.6, Leading zero omitted, Abs format (unit mm)*
G04 Created by KiCad (PCBNEW 4.0.6) date 05/07/18 16:26:14*
%MOMM*%
%LPD*%
G01*
G04 APERTURE LIST*
%ADD10C,0.100000*%
%ADD11C,2.200000*%
%ADD12C,3.400000*%
%ADD13R,2.100000X2.100000*%
%ADD14O,2.100000X2.100000*%
%ADD15C,6.800000*%
%ADD16C,1.924000*%
%ADD17C,2.900000*%
G04 APERTURE END LIST*
D10*
D11*
X122170000Y-128610000D03*
X122170000Y-140510000D03*
D12*
X99060000Y-128610000D03*
X99060000Y-152400000D03*
D13*
X146050000Y-160020000D03*
D14*
X148590000Y-160020000D03*
X146050000Y-157480000D03*
X148590000Y-157480000D03*
X146050000Y-154940000D03*
X148590000Y-154940000D03*
X146050000Y-152400000D03*
X148590000Y-152400000D03*
X146050000Y-149860000D03*
X148590000Y-149860000D03*
X146050000Y-147320000D03*
X148590000Y-147320000D03*
D15*
X147320000Y-170180000D03*
X147320000Y-116840000D03*
X73660000Y-116840000D03*
X73660000Y-170180000D03*
D16*
X83616800Y-167640000D03*
X88696800Y-167640000D03*
X88696800Y-154940000D03*
X83616800Y-154940000D03*
X104140000Y-167640000D03*
X109220000Y-167640000D03*
X109220000Y-154940000D03*
X104140000Y-154940000D03*
X124460000Y-167640000D03*
X129540000Y-167640000D03*
X129540000Y-154940000D03*
X124460000Y-154940000D03*
X83820000Y-149860000D03*
X88900000Y-149860000D03*
X88900000Y-137160000D03*
X83820000Y-137160000D03*
X104140000Y-149860000D03*
X109220000Y-149860000D03*
X109220000Y-137160000D03*
X104140000Y-137160000D03*
X124460000Y-149860000D03*
X129540000Y-149860000D03*
X129540000Y-137160000D03*
X124460000Y-137160000D03*
X83820000Y-132080000D03*
X88900000Y-132080000D03*
X88900000Y-119380000D03*
X83820000Y-119380000D03*
X104140000Y-132080000D03*
X109220000Y-132080000D03*
X109220000Y-119380000D03*
X104140000Y-119380000D03*
X124460000Y-132080000D03*
X129540000Y-132080000D03*
X129540000Y-119380000D03*
X124460000Y-119380000D03*
D17*
X144780000Y-128750000D03*
X144780000Y-133350000D03*
M02*
