M48
METRIC,LZ
T1C0.762
T2C1.000
T3C1.200
T4C1.650
T5C3.200
%
G90
G05
T1
X083617Y-15494
X083617Y-16764
X08382Y-11938
X08382Y-13208
X08382Y-13716
X08382Y-14986
X088697Y-15494
X088697Y-16764
X0889Y-11938
X0889Y-13208
X0889Y-13716
X0889Y-14986
X10414Y-11938
X10414Y-13208
X10414Y-13716
X10414Y-14986
X10414Y-15494
X10414Y-16764
X10922Y-11938
X10922Y-13208
X10922Y-13716
X10922Y-14986
X10922Y-15494
X10922Y-16764
X12446Y-11938
X12446Y-13208
X12446Y-13716
X12446Y-14986
X12446Y-15494
X12446Y-16764
X12954Y-11938
X12954Y-13208
X12954Y-13716
X12954Y-14986
X12954Y-15494
X12954Y-16764
T2
X14605Y-14732
X14605Y-14986
X14605Y-1524
X14605Y-15494
X14605Y-15748
X14605Y-16002
X14859Y-14732
X14859Y-14986
X14859Y-1524
X14859Y-15494
X14859Y-15748
X14859Y-16002
T3
X12217Y-12861
X12217Y-14051
T4
X14478Y-12875
X14478Y-13335
T5
X07366Y-11684
X07366Y-17018
X14732Y-11684
X14732Y-17018
T0
M30
